<?xml version="1.0" encoding="UTF-8" standalone="no"?>
<!DOCTYPE svg PUBLIC "-//W3C//DTD SVG 1.1//EN" "http://www.w3.org/Graphics/SVG/1.1/DTD/svg11.dtd">
<!-- Generated by Microsoft Visio, SVG Export big-data-physical-architecture-dp-ds-expanded-6.4.svg DataPrep/DataSteward Expanded -->
<svg xmlns="http://www.w3.org/2000/svg" xmlns:xlink="http://www.w3.org/1999/xlink" xmlns:ev="http://www.w3.org/2001/xml-events"
		width="6.86816in" height="6.21199in" viewBox="0 0 494.508 447.264" xml:space="preserve" color-interpolation-filters="sRGB"
		class="st10">
	<style type="text/css">
	<![CDATA[
		.st1 {fill:#f8fea5;stroke:#000000;stroke-linecap:round;stroke-linejoin:round;stroke-width:0.24}
		.st2 {fill:#ffffff;stroke:#000000;stroke-linecap:round;stroke-linejoin:round;stroke-width:1}
		.st3 {fill:#000000;font-family:Calibri;font-size:0.666664em;font-weight:bold}
		.st4 {fill:#dde2cd;stroke:#000000;stroke-linecap:round;stroke-linejoin:round;stroke-width:0.24}
		.st5 {fill:#000000;font-family:Calibri;font-size:0.666664em}
		.st6 {fill:#ffffff;stroke:#000000;stroke-linecap:round;stroke-linejoin:round;stroke-width:0.24}
		.st7 {fill:none;stroke:none;stroke-linecap:round;stroke-linejoin:round;stroke-width:0.75}
		.st8 {fill:#000000;font-family:Calibri;font-size:1.5em;font-weight:bold}
		.st9 {font-size:1em}
		.st10 {fill:none;fill-rule:evenodd;font-size:12px;overflow:visible;stroke-linecap:square;stroke-miterlimit:3}
	]]>
	</style>

	<g>
		<title>DP / TDS Expanded</title>
		<g id="shape2-1" transform="translate(136.23,-18.12)">
			<title>Sheet.2</title>
			<path d="M28.61 253.74 A155.906 205.512 -180 0 0 340.16 241.75 A155.906 205.512 -180 0 0 31.06 203.61 L0 234.67 L28.61
						 253.74 Z" class="st1"/>
		</g>
		<g id="shape3-3" transform="translate(235.443,-93.2381)">
			<title>Box.3</title>
			<desc>Talend Server</desc>
			<rect x="0" y="153.878" width="170.079" height="293.386" class="st2"/>
			<text x="62.24" y="165.08" class="st3">Talend Server</text>		</g>
		<g id="shape4-6" transform="translate(249.616,-264.83)">
			<title>Box.90</title>
			<desc>Talend Data Preparation</desc>
			<rect x="0" y="424.844" width="141.732" height="22.4195" class="st4"/>
			<text x="31.2" y="436.04" class="st5">Talend Data Preparation</text>		</g>
		<g id="shape5-9" transform="translate(249.616,-321.522)">
			<title>Box.116</title>
			<desc>Tomcat 2</desc>
			<rect x="0" y="406.87" width="141.732" height="40.3937" class="st4"/>
			<text x="55.73" y="418.07" class="st5">Tomcat 2</text>		</g>
		<g id="shape6-12" transform="translate(249.616,-240.673)">
			<title>Box.117</title>
			<desc>Talend Components Catalogue Service</desc>
			<rect x="0" y="428.777" width="141.732" height="18.4868" class="st4"/>
			<text x="8.5" y="439.98" class="st5">Talend Components Catalogue Service</text>		</g>
		<g id="shape7-15" transform="translate(249.616,-218.736)">
			<title>Box.118</title>
			<desc>Apache Kafka</desc>
			<rect x="0" y="430.256" width="141.732" height="17.0079" class="st4"/>
			<text x="48.9" y="441.46" class="st5">Apache Kafka</text>		</g>
		<g id="shape8-18" transform="translate(249.616,-196.059)">
			<title>Box.119</title>
			<desc>Apache Zookeeper</desc>
			<rect x="0" y="430.256" width="141.732" height="17.0079" class="st4"/>
			<text x="40.47" y="441.46" class="st5">Apache Zookeeper</text>		</g>
		<g id="shape10-21" transform="translate(249.616,-150.704)">
			<title>Box.131</title>
			<desc>Tomcat 3</desc>
			<rect x="0" y="407.836" width="141.732" height="39.4273" class="st4"/>
			<text x="55.73" y="419.04" class="st5">Tomcat 3</text>		</g>
		<g id="shape11-24" transform="translate(261.39,-155.601)">
			<title>Data table.135</title>
			<desc>Talend Dictionary Service</desc>
			<path d="M0 442.88 L118.52 442.88 L118.52 428.71 L0 428.71 L0 442.88 Z" class="st6"/>
			<text x="18.19" y="439.34" class="st5">Talend Dictionary Service</text>		</g>
		<g id="shape12-27" transform="translate(261.39,-325.647)">
			<title>Data table.137</title>
			<desc>Talend Data Stewardship</desc>
			<path d="M0 442.88 L118.52 442.88 L118.52 428.71 L0 428.71 L0 442.88 Z" class="st6"/>
			<text x="18.72" y="439.34" class="st5">Talend Data Stewardship</text>		</g>
		<g id="shape13-30" transform="translate(249.616,-293.434)">
			<title>Box.138</title>
			<desc>MongoDB</desc>
			<rect x="0" y="424.844" width="141.732" height="22.4195" class="st4"/>
			<text x="54.61" y="436.04" class="st5">MongoDB</text>		</g>
		<g id="shape14-33" transform="translate(249.616,-103.159)">
			<title>Box.139</title>
			<desc>Tomcat 4</desc>
			<rect x="0" y="408.146" width="141.732" height="39.1181" class="st4"/>
			<text x="55.73" y="419.35" class="st5">Tomcat 4</text>		</g>
		<g id="shape15-36" transform="translate(261.39,-107.607)">
			<title>Data table.147</title>
			<desc>IAM Service</desc>
			<path d="M0 442.88 L118.52 442.88 L118.52 428.71 L0 428.71 L0 442.88 Z" class="st6"/>
			<text x="39.99" y="439.34" class="st5">IAM Service</text>		</g>
		<g id="shape16-39" transform="translate(249.616,-393.711)">
			<title>Sheet.16</title>
			<desc>Expanded</desc>
			<rect x="0" y="422.319" width="131.811" height="24.9449" class="st7"/>
			<text x="29.09" y="440.19" class="st8">Expanded</text>		</g>
		<g id="shape17-42" transform="translate(18.12,-210.522)">
			<title>Box.17</title>
			<desc>Data Preparation and Data Stewardship components (collapsed v...</desc>
			<rect x="0" y="406.87" width="113.386" height="40.3937" class="st4"/>
			<text x="13.35" y="418.07" class="st5">Data Preparation and Data <tspan x="15.36" dy="1.2em" class="st9">Stewardship components </tspan><tspan
						x="30.48" dy="1.2em" class="st9">(collapsed view)</tspan></text>		</g>
	</g>
</svg>
