<?xml version="1.0" encoding="UTF-8" standalone="no"?>
<!DOCTYPE svg PUBLIC "-//W3C//DTD SVG 1.1//EN" "http://www.w3.org/Graphics/SVG/1.1/DTD/svg11.dtd">
<!-- Generated by Microsoft Visio, SVG Export big-data-physical-architecture-preprod-prod-6.4.svg Page-1 -->
<svg xmlns="http://www.w3.org/2000/svg" xmlns:xlink="http://www.w3.org/1999/xlink" xmlns:ev="http://www.w3.org/2001/xml-events"
		width="11.7326in" height="7.17229in" viewBox="0 0 844.749 516.405" xml:space="preserve" color-interpolation-filters="sRGB"
		class="st31">
	<style type="text/css">
	<![CDATA[
		.st1 {fill:#f2f2f2;stroke:#d8d8d8;stroke-dasharray:7,5;stroke-linecap:round;stroke-linejoin:round;stroke-width:1}
		.st2 {fill:#ffffff;stroke:#000000;stroke-linecap:round;stroke-linejoin:round;stroke-width:1}
		.st3 {fill:#0070c0;font-family:Calibri;font-size:0.916672em;font-weight:bold}
		.st4 {fill:#dde2cd;stroke:#000000;stroke-linecap:round;stroke-linejoin:round;stroke-width:0.24}
		.st5 {fill:#000000;font-family:Calibri;font-size:0.666664em}
		.st6 {font-size:1em}
		.st7 {fill:#ffffff;stroke:#000000;stroke-linecap:round;stroke-linejoin:round;stroke-width:0.24}
		.st8 {fill:none;stroke:none;stroke-linecap:round;stroke-linejoin:round;stroke-width:0.75}
		.st9 {fill:#000000;font-family:Calibri;font-size:1.5em;font-weight:bold}
		.st10 {fill:#ffffff}
		.st11 {stroke:#000000;stroke-linecap:round;stroke-linejoin:round;stroke-width:0.24}
		.st12 {fill:#ffffff;stroke:#ff0000;stroke-dasharray:7,5;stroke-linecap:round;stroke-linejoin:round;stroke-width:1}
		.st13 {fill:#0070c0;font-family:Calibri;font-size:0.833336em;font-weight:bold}
		.st14 {marker-end:url(#mrkr4-94);stroke:#00b050;stroke-linecap:round;stroke-linejoin:round;stroke-width:1.5}
		.st15 {fill:#00b050;fill-opacity:1;stroke:#00b050;stroke-opacity:1;stroke-width:0.37313432835821}
		.st16 {fill:#ffffff;stroke:none;stroke-linecap:butt;stroke-width:7.2}
		.st17 {fill:#00b050;font-family:Calibri;font-size:0.666664em}
		.st18 {marker-end:url(#mrkr4-112);stroke:#ffc000;stroke-linecap:round;stroke-linejoin:round;stroke-width:1.5}
		.st19 {fill:#ffc000;fill-opacity:1;stroke:#ffc000;stroke-opacity:1;stroke-width:0.37313432835821}
		.st20 {fill:none;stroke:#7030a0;stroke-dasharray:10.5,7.5;stroke-linecap:round;stroke-linejoin:round;stroke-width:1.5}
		.st21 {fill:#7030a0;font-family:Calibri;font-size:0.916672em;font-weight:bold}
		.st22 {fill:#c6d8f0;stroke:#000000;stroke-linecap:round;stroke-linejoin:round;stroke-width:1}
		.st23 {fill:#000000;font-family:Calibri;font-size:0.666664em;font-weight:bold}
		.st24 {fill:#dde2cd;stroke:#ff0000;stroke-dasharray:3.6,2.16;stroke-linecap:round;stroke-linejoin:round;stroke-width:0.24}
		.st25 {marker-end:url(#mrkr13-165);marker-start:url(#mrkr13-163);stroke:#00b050;stroke-linecap:round;stroke-linejoin:round;stroke-width:1.5}
		.st26 {fill:#000000;font-family:Calibri;font-size:1.16666em;font-weight:bold}
		.st27 {fill:#000000;font-size:0.727266em}
		.st28 {fill:#7030a0;font-size:0.785725em}
		.st29 {stroke:#000000;stroke-linecap:round;stroke-linejoin:round;stroke-width:0.75}
		.st30 {fill:#ff0000;font-family:Calibri;font-size:0.833336em}
		.st31 {fill:none;fill-rule:evenodd;font-size:12px;overflow:visible;stroke-linecap:square;stroke-miterlimit:3}
	]]>
	</style>

	<defs id="Markers">
		<g id="lend4">
			<path d="M 2 1 L 0 0 L 2 -1 L 2 1 " style="stroke:none"/>
		</g>
		<marker id="mrkr4-94" class="st15" refX="-5.36" orient="auto" markerUnits="strokeWidth" overflow="visible">
			<use xlink:href="#lend4" transform="scale(-2.68,-2.68) "/>
		</marker>
		<marker id="mrkr4-112" class="st19" refX="-5.36" orient="auto" markerUnits="strokeWidth" overflow="visible">
			<use xlink:href="#lend4" transform="scale(-2.68,-2.68) "/>
		</marker>
		<g id="lend13">
			<path d="M 3 1 L 0 0 L 3 -1 L 3 1 " style="stroke:none"/>
		</g>
		<marker id="mrkr13-163" class="st15" refX="7.8" orient="auto" markerUnits="strokeWidth" overflow="visible">
			<use xlink:href="#lend13" transform="scale(2.68) "/>
		</marker>
		<marker id="mrkr13-165" class="st15" refX="-8.04" orient="auto" markerUnits="strokeWidth" overflow="visible">
			<use xlink:href="#lend13" transform="scale(-2.68,-2.68) "/>
		</marker>
	</defs>
	<g>
		<title>PRE-PROD / PROD</title>
		<g id="shape264-1" transform="translate(21.9183,-18.5)">
			<title>Box.264</title>
			<path d="M0 516.4 L123.31 516.4 L123.31 252.15 L0 252.15 L0 516.4 Z" class="st1"/>
		</g>
		<g id="shape263-3" transform="translate(450.942,-18.5)">
			<title>Box.263</title>
			<path d="M0 516.4 L173.76 516.4 L173.76 37 L0 37 L0 516.4 Z" class="st1"/>
		</g>
		<g id="shape261-5" transform="translate(262.438,-18.5)">
			<title>Box.261</title>
			<path d="M0 516.4 L173.76 516.4 L173.76 37 L0 37 L0 516.4 Z" class="st1"/>
		</g>
		<g id="shape1-7" transform="translate(284.548,-306.217)">
			<title>Box.3</title>
			<desc>Talend Admin Server 1</desc>
			<rect x="0" y="372.794" width="126.709" height="143.61" class="st2"/>
			<text x="11.67" y="386.69" class="st3">Talend Admin Server 1</text>		</g>
		<g id="shape9-10" transform="translate(465.847,-52.9764)">
			<title>Box.9</title>
			<desc>Job Server 2</desc>
			<rect x="0" y="445.539" width="144.685" height="70.8661" class="st2"/>
			<text x="44.69" y="459.44" class="st3">Job Server 2</text>		</g>
		<g id="shape10-13" transform="translate(481.792,-64.315)">
			<title>Box.10</title>
			<desc>JobServer</desc>
			<rect x="0" y="479.554" width="113.386" height="36.8504" class="st4"/>
			<text x="40.79" y="490.75" class="st5">JobServer</text>		</g>
		<g id="shape19-16" transform="translate(34.6742,-110.841)">
			<title>Box.46</title>
			<desc>Client PC</desc>
			<rect x="0" y="396.216" width="96.378" height="120.189" class="st2"/>
			<text x="27.87" y="410.12" class="st3">Client PC</text>		</g>
		<g id="shape20-19" transform="translate(48.8474,-188.51)">
			<title>Box.47</title>
			<desc>Web Browser</desc>
			<rect x="0" y="499.397" width="68.0315" height="17.0079" class="st4"/>
			<text x="11.97" y="510.6" class="st5">Web Browser</text>		</g>
		<g id="shape21-22" transform="translate(48.8474,-160.164)">
			<title>Box.48</title>
			<desc>DB Clients</desc>
			<rect x="0" y="499.397" width="68.0315" height="17.0079" class="st4"/>
			<text x="17.51" y="510.6" class="st5">DB Clients</text>		</g>
		<g id="shape22-25" transform="translate(48.8474,-123.313)">
			<title>Box.49</title>
			<desc>File Tools (FTP etc.)</desc>
			<rect x="0" y="488.058" width="68.0315" height="28.3465" class="st4"/>
			<text x="10.83" y="499.26" class="st5">File Tools (FTP <tspan x="26.77" dy="1.2em" class="st6">etc.)</tspan></text>		</g>
		<g id="shape97-29" transform="translate(509.619,-67.1496)">
			<title>Data table.97</title>
			<desc>Jobs</desc>
			<path d="M0 513.57 L60.09 513.57 L60.09 499.4 L0 499.4 L0 513.57 Z" class="st7"/>
			<text x="23" y="510.03" class="st5">Jobs</text>		</g>
		<g id="shape116-32" transform="translate(292.391,-320.213)">
			<title>Box.116</title>
			<desc>Data Preparation and Data Stewardship components (collapsed v...</desc>
			<rect x="0" y="476.011" width="113.386" height="40.3937" class="st4"/>
			<text x="13.35" y="487.21" class="st5">Data Preparation and Data <tspan x="15.36" dy="1.2em" class="st6">Stewardship components </tspan><tspan
						x="30.48" dy="1.2em" class="st6">(collapsed view)</tspan></text>		</g>
		<g id="shape121-37" transform="translate(292.391,-370.173)">
			<title>Box.121</title>
			<desc>Logserver (ELK stack)</desc>
			<rect x="0" y="489.476" width="113.386" height="26.9291" class="st4"/>
			<text x="40.88" y="500.68" class="st5">Logserver <tspan x="39.32" dy="1.2em" class="st6">(ELK stack)</tspan></text>		</g>
		<g id="shape144-41" transform="translate(468.8,-301.008)">
			<title>Box.144</title>
			<desc>Job Server 1</desc>
			<rect x="0" y="416.235" width="141.732" height="100.169" class="st2"/>
			<text x="43.21" y="430.14" class="st3">Job Server 1</text>		</g>
		<g id="shape145-44" transform="translate(483.446,-340.232)">
			<title>Box.145</title>
			<desc>JobServer</desc>
			<rect x="0" y="479.554" width="113.386" height="36.8504" class="st4"/>
			<text x="40.79" y="490.75" class="st5">JobServer</text>		</g>
		<g id="shape146-47" transform="translate(510.092,-343.528)">
			<title>Data table.146</title>
			<desc>Jobs</desc>
			<path d="M0 513.57 L60.09 513.57 L60.09 499.4 L0 499.4 L0 513.57 Z" class="st7"/>
			<text x="23" y="510.03" class="st5">Jobs</text>		</g>
		<g id="shape150-50" transform="translate(285.257,-472.61)">
			<title>Sheet.150</title>
			<desc>Administration</desc>
			<rect x="0" y="491.46" width="131.811" height="24.9449" class="st8"/>
			<text x="9.7" y="509.33" class="st9">Administration</text>		</g>
		<g id="shape154-53" transform="translate(497.147,-472.61)">
			<title>Sheet.154</title>
			<desc>Execution</desc>
			<rect x="0" y="491.46" width="91.1811" height="24.9449" class="st8"/>
			<text x="8.94" y="509.33" class="st9">Execution </text>		</g>
		<g id="shape156-56" transform="translate(18.375,-248.605)">
			<title>Sheet.156</title>
			<desc>Client</desc>
			<rect x="0" y="491.46" width="131.811" height="24.9449" class="st8"/>
			<text x="44.24" y="509.33" class="st9">Client</text>		</g>
		<g id="shape172-59" transform="translate(284.548,-38.8031)">
			<title>Box.172</title>
			<desc>Talend Admin Server 2</desc>
			<rect x="0" y="424.279" width="126.709" height="92.126" class="st2"/>
			<text x="11.67" y="438.18" class="st3">Talend Admin Server 2</text>		</g>
		<g id="shape173-62" transform="translate(291.044,-52.9764)">
			<title>Box.173</title>
			<desc>Tomcat</desc>
			<rect x="0" y="461.129" width="113.386" height="55.2756" class="st4"/>
			<text x="44.49" y="472.33" class="st5">Tomcat</text>		</g>
		<g id="shape174-65" transform="translate(305.218,-60.063)">
			<title>Data table.174</title>
			<desc>TAC AMC</desc>
			<path d="M0 513.57 L85.04 513.57 L85.04 485.22 L0 485.22 L0 513.57 Z" class="st10"/>
			<path d="M0 513.57 L85.04 513.57 L85.04 485.22 L0 485.22 L0 513.57" class="st11"/>
			<path d="M0 499.4 L85.04 499.4" class="st11"/>
			<text x="36.12" y="495.85" class="st5">TAC <tspan x="34.65" dy="1.772em" class="st6">AMC</tspan></text>		</g>
		<g id="shape184-71" transform="translate(148.005,-206.016)">
			<title>Sheet.184</title>
			<rect x="0" y="496.405" width="152" height="20" class="st8"/>
		</g>
		<g id="shape238-73" transform="translate(189.753,-46.8465)">
			<title>Box.84</title>
			<desc>F A I L O V E R D E V I C E</desc>
			<path d="M0 516.4 L31.18 516.4 L31.18 268.66 L0 268.66 L0 516.4 Z" class="st12"/>
			<text x="13.3" y="305.66" class="st13">F <tspan x="12.56" dy="1.2em" class="st6">A </tspan><tspan x="14.26" dy="1.2em"
						class="st6">I </tspan><tspan x="13.48" dy="1.2em" class="st6">L </tspan><tspan x="12.21" dy="1.2em"
						class="st6">O </tspan><tspan x="12.63" dy="1.2em" class="st6">V </tspan><tspan x="13.15" dy="1.2em"
						class="st6">E </tspan><tspan x="12.78" dy="1.2em" class="st6">R  </tspan><tspan x="12.44" dy="2.4em"
						class="st6">D </tspan><tspan x="13.15" dy="1.2em" class="st6">E </tspan><tspan x="12.63" dy="1.2em"
						class="st6">V </tspan><tspan x="14.26" dy="1.2em" class="st6">I </tspan><tspan x="12.94" dy="1.2em"
						class="st6">C </tspan><tspan x="13.15" dy="1.2em" class="st6">E</tspan></text>		</g>
		<g id="shape249-89" transform="translate(220.934,-170.72)">
			<title>Dynamic connector.249</title>
			<desc>All requests</desc>
			<path d="M0 516.4 L24.21 516.4 L24.21 309.1 L55.57 309.1" class="st14"/>
			<rect x="10.1658" y="395.56" width="28.0934" height="19.1997" class="st16"/>
			<text x="20.06" y="402.76" class="st17">All  <tspan x="10.17" dy="1.2em" class="st6">requests</tspan></text>		</g>
		<g id="shape250-98" transform="translate(220.934,-170.72)">
			<title>Dynamic connector.250</title>
			<desc>Requests On Failover</desc>
			<path d="M0 516.4 L24.21 516.4 L24.21 602.26 L55.57 602.26" class="st14"/>
			<rect x="9.38853" y="552.527" width="29.648" height="28.7996" class="st16"/>
			<text x="9.39" y="559.73" class="st17">Requests <tspan x="19.46" dy="1.2em" class="st6">On </tspan><tspan x="11.32"
						dy="1.2em" class="st6">Failover</tspan></text>		</g>
		<g id="shape251-107" transform="translate(347.903,-306.217)">
			<title>Dynamic connector.251</title>
			<path d="M0 516.4 L-0 563.18 L95.8 563.18 L95.8 579.23" class="st18"/>
		</g>
		<g id="shape252-113" transform="translate(539.666,-301.374)">
			<title>Dynamic connector.252</title>
			<path d="M0 516.4 L-0 558.92 L-95.96 558.92 L-95.96 574.39" class="st18"/>
		</g>
		<g id="shape253-118" transform="translate(538.19,-123.843)">
			<title>Dynamic connector.253</title>
			<path d="M0 516.4 L0 497.51 L-94.49 497.51 L-94.49 473.88" class="st18"/>
		</g>
		<g id="shape254-123" transform="translate(347.903,-130.929)">
			<title>Dynamic connector.254</title>
			<path d="M0 516.4 L0 504.59 L95.8 504.59 L95.8 480.97" class="st18"/>
		</g>
		<g id="shape255-128" transform="translate(131.052,-177.915)">
			<title>Dynamic connector.255</title>
			<path d="M0 523.38 L13.5 523.38 L13.5 523.6 L50.66 523.6" class="st14"/>
		</g>
		<g id="shape321-133" transform="translate(270.375,-29.2717)">
			<title>Box.321</title>
			<desc>Quartz cluster (Active – Active)</desc>
			<path d="M0 516.4 L151.65 516.4 L151.65 76.59 L0 76.59 L0 516.4 Z" class="st20"/>
			<text x="5.24" y="90.49" class="st21">Quartz cluster (Active – Active)</text>		</g>
		<g id="shape322-136" transform="translate(456.682,-28.4213)">
			<title>Box.322</title>
			<desc>Virtual Jobserver</desc>
			<path d="M0 516.4 L160.37 516.4 L160.37 106.8 L0 106.8 L0 516.4 Z" class="st20"/>
			<text x="41.49" y="120.7" class="st21">Virtual Jobserver </text>		</g>
		<g id="shape168-139" transform="translate(276.871,-174.406)">
			<title>Box.168</title>
			<desc>Shared File System</desc>
			<rect x="0" y="455.46" width="333.661" height="60.9449" class="st22"/>
			<text x="135.58" y="466.66" class="st23">Shared File System</text>		</g>
		<g id="shape169-142" transform="translate(291.044,-202.504)">
			<title>Box.169</title>
			<desc>Deployed Job Binaries</desc>
			<rect x="0" y="499.539" width="113.386" height="16.8661" class="st4"/>
			<text x="20.94" y="510.74" class="st5">Deployed Job Binaries</text>		</g>
		<g id="shape170-145" transform="translate(291.044,-179.189)">
			<title>Box.170</title>
			<desc>Job Logs</desc>
			<rect x="0" y="499.539" width="113.386" height="16.8661" class="st4"/>
			<text x="43.06" y="510.74" class="st5">Job Logs</text>		</g>
		<g id="shape171-148" transform="translate(475.296,-201.795)">
			<title>Box.171</title>
			<desc>Common job files</desc>
			<rect x="0" y="499.539" width="113.386" height="16.8661" class="st4"/>
			<text x="28.26" y="510.74" class="st5">Common job files</text>		</g>
		<g id="shape323-151" transform="translate(482.855,-316.138)">
			<title>Box.323</title>
			<desc>SAP RFC Server (optional)</desc>
			<path d="M0 516.4 L113.39 516.4 L113.39 497.98 L0 497.98 L0 516.4 Z" class="st24"/>
			<text x="15.27" y="509.18" class="st5">SAP RFC Server (optional)</text>		</g>
		<g id="shape349-154" transform="translate(35.3829,-60.4291)">
			<title>Box.349</title>
			<desc>External scheduler</desc>
			<path d="M0 516.4 L96.38 516.4 L96.38 478.52 L0 478.52 L0 516.4 Z" class="st12"/>
			<text x="5.89" y="492.43" class="st3">External scheduler</text>		</g>
		<g id="shape351-157" transform="translate(131.761,-72.3203)">
			<title>Dynamic connector</title>
			<path d="M11.7 509.36 L12.06 509.36 L13.5 509.36 L13.5 509.28 L45.93 509.28" class="st25"/>
		</g>
		<g id="shape352-166" transform="translate(664.674,-284.248)">
			<title>Box.330</title>
			<path d="M0 516.4 L161.57 516.4 L161.57 303.81 L0 303.81 L0 516.4 Z" class="st1"/>
		</g>
		<g id="shape353-168" transform="translate(674.595,-471.552)">
			<title>Sheet.353</title>
			<desc>SDLC</desc>
			<rect x="0" y="491.46" width="131.811" height="24.9449" class="st8"/>
			<text x="51.52" y="508.13" class="st26">SDLC</text>		</g>
		<g id="shape354-171" transform="translate(674.393,-384.838)">
			<title>Box.332</title>
			<desc>Shared Nexus (Same server and repositories as in TEST, Pre-Pr...</desc>
			<rect x="0" y="437.351" width="142.583" height="79.0535" class="st2"/>
			<text x="40.04" y="451.25" class="st3">Shared Nexus <tspan x="12.3" dy="1.312em" class="st27"> </tspan><tspan
						class="st27">(Same server and repositories as in </tspan><tspan x="29.75" dy="1.2em" class="st27">TEST, Pre</tspan><tspan
						class="st27">-</tspan><tspan class="st27">Prod and Prod)</tspan></text>		</g>
		<g id="shape355-179" transform="translate(687.999,-396.602)">
			<title>Box.56</title>
			<desc>Nexus (Collapsed)</desc>
			<rect x="0" y="494.578" width="113.386" height="21.8268" class="st4"/>
			<text x="27.64" y="505.78" class="st5">Nexus (Collapsed)</text>		</g>
		<g id="shape356-182" transform="translate(675.304,-294.878)">
			<title>Box.158</title>
			<desc>CI Server (Same server as in TEST, Pre-Prod and Prod)</desc>
			<rect x="0" y="438.452" width="140.315" height="77.9528" class="st2"/>
			<text x="49.89" y="452.35" class="st3">CI Server  <tspan x="7.56" dy="1.312em" class="st27">(Same server as in TEST, Pre</tspan><tspan
						class="st27">-</tspan><tspan class="st27">Prod and </tspan><tspan x="61.06" dy="1.2em" class="st27">Prod)</tspan></text>		</g>
		<g id="shape357-189" transform="translate(688.296,-308.484)">
			<title>Box.181</title>
			<desc>CI (Collapsed)</desc>
			<rect x="0" y="494.578" width="113.386" height="21.8268" class="st4"/>
			<text x="34.47" y="505.78" class="st5">CI (Collapsed)</text>		</g>
		<g id="shape358-192" transform="translate(291.8,-405.429)">
			<title>Box</title>
			<desc>TAC (Collapsed)</desc>
			<rect x="0" y="496.562" width="113.386" height="19.8425" class="st4"/>
			<text x="31.21" y="507.76" class="st5">TAC (Collapsed)</text>		</g>
		<g id="group359-195" transform="translate(32.5482,-306.323)">
			<title>Sheet.359</title>
			<g id="shape342-196">
				<title>Box.260</title>
				<path d="M0 516.4 L163.42 516.4 L163.42 351.3 L0 351.3 L0 516.4 Z" class="st1"/>
			</g>
			<g id="shape343-198" transform="translate(14.1732,-14.1732)">
				<title>Box.109</title>
				<desc>DB</desc>
				<rect x="0" y="403.976" width="135.213" height="112.429" class="st2"/>
				<text x="61.06" y="417.88" class="st3">DB</text>			</g>
			<g id="shape344-201" transform="translate(33.5905,-140.776)">
				<title>Sheet.344</title>
				<desc>Database</desc>
				<rect x="0" y="491.46" width="109.134" height="24.9449" class="st8"/>
				<text x="19.49" y="509.33" class="st9">Database</text>			</g>
			<g id="shape345-204" transform="translate(25.0866,-28.3465)">
				<title>Box.157</title>
				<desc>Talend Infratructure Database</desc>
				<rect x="0" y="439.764" width="113.386" height="76.6404" class="st4"/>
				<text x="7.71" y="450.96" class="st5">Talend Infratructure Database</text>			</g>
			<g id="shape346-207" transform="translate(36.2747,-68.0705)">
				<title>Data table.159</title>
				<desc>TAC</desc>
				<path d="M0 512.03 L91.01 512.03 L91.01 497.85 L0 497.85 L0 512.03 Z" class="st7"/>
				<text x="39.11" y="508.48" class="st5">TAC</text>			</g>
			<g id="shape347-210" transform="translate(36.2747,-53.8357)">
				<title>Data table.160</title>
				<desc>AMC</desc>
				<path d="M0 512.03 L91.01 512.03 L91.01 497.85 L0 497.85 L0 512.03 Z" class="st7"/>
				<text x="37.64" y="508.48" class="st5">AMC</text>			</g>
			<g id="shape348-213" transform="translate(36.2747,-39.5787)">
				<title>Data table.341</title>
				<desc>TDQ</desc>
				<path d="M0 512.03 L91.01 512.03 L91.01 497.85 L0 497.85 L0 512.03 Z" class="st7"/>
				<text x="38.4" y="508.48" class="st5">TDQ</text>			</g>
		</g>
		<g id="group360-216" transform="translate(670.343,-53.9331)">
			<title>Sheet.360</title>
			<g id="group361-217" transform="translate(0,-77.9528)">
				<title>Sheet.361</title>
				<g id="shape362-218" transform="translate(0,77.9528)">
					<title>Box.260</title>
					<path d="M0 516.4 L155.91 516.4 L155.91 296.72 L0 296.72 L0 516.4 Z" class="st1"/>
				</g>
				<g id="shape363-220" transform="translate(24.8031,-115.087)">
					<title>Sheet.363</title>
					<desc>Hadoop Cluster Virtual Jobserver</desc>
					<rect x="0" y="491.46" width="109.134" height="24.9449" class="st8"/>
					<text x="9.66" y="499.73" class="st26">Hadoop Cluster <tspan x="15.87" dy="1.527em" class="st28">Virtual Jobserver </tspan></text>				</g>
				<g id="shape364-224" transform="translate(11.3386,-21.2598)">
					<title>Box.109</title>
					<desc>Edge Node 1</desc>
					<rect x="0" y="427.886" width="134.646" height="88.5189" class="st2"/>
					<text x="38.74" y="441.79" class="st3">Edge Node 1</text>				</g>
			</g>
			<g id="shape365-227" transform="translate(23.0315,-115.748)">
				<title>Box.90</title>
				<desc>JobServer</desc>
				<rect x="0" y="477.093" width="113.386" height="39.312" class="st4"/>
				<text x="40.79" y="488.29" class="st5">JobServer</text>			</g>
			<g id="shape366-230" transform="translate(26.2205,-121.417)">
				<title>Data table.85</title>
				<desc>Standard Jobs/ Spark Jobs</desc>
				<path d="M0 513.57 L104.88 513.57 L104.88 499.4 L0 499.4 L0 513.57 Z" class="st7"/>
				<text x="10.3" y="510.03" class="st5">Standard Jobs/ Spark Jobs</text>			</g>
			<g id="shape367-233" transform="translate(10.6299,0)">
				<title>Box.108</title>
				<desc>Edge Node 2</desc>
				<rect x="0" y="427.886" width="134.646" height="88.5189" class="st2"/>
				<text x="38.74" y="441.79" class="st3">Edge Node 2</text>			</g>
			<g id="shape368-236" transform="translate(21.2598,-17.3809)">
				<title>Box.110</title>
				<desc>JobServer</desc>
				<rect x="0" y="477.093" width="113.386" height="39.312" class="st4"/>
				<text x="40.79" y="488.29" class="st5">JobServer</text>			</g>
			<g id="shape369-239" transform="translate(25.5118,-25.5118)">
				<title>Data table.111</title>
				<desc>Standard Jobs/ Spark Jobs</desc>
				<path d="M0 513.57 L104.88 513.57 L104.88 499.4 L0 499.4 L0 513.57 Z" class="st7"/>
				<text x="10.3" y="510.03" class="st5">Standard Jobs/ Spark Jobs</text>			</g>
		</g>
		<g id="shape371-242" transform="translate(680.973,-98.1925)">
			<title>Dynamic connector.371</title>
			<path d="M0 516.4 L-13.5 516.4 L-13.5 409.72 L-62.4 409.72" class="st18"/>
		</g>
		<g id="shape373-247" transform="translate(681.682,-194.055)">
			<title>Dynamic connector.373</title>
			<path d="M0 513.05 L-13.5 513.05 L-13.5 505.58 L-63.11 505.58" class="st18"/>
		</g>
		<g id="shape248-252" transform="translate(135.895,-211.823)">
			<title>Text Callout</title>
			<desc>Optional</desc>
			<path d="M46.77 516.4 L53.86 539.76" class="st29"/>
			<text x="5.82" y="508.07" class="st30">Optional</text>		</g>
	</g>
</svg>
