<?xml version="1.0" encoding="UTF-8" standalone="no"?>
<!DOCTYPE svg PUBLIC "-//W3C//DTD SVG 1.1//EN" "http://www.w3.org/Graphics/SVG/1.1/DTD/svg11.dtd">
<!-- Generated by Microsoft Visio, SVG Export data-management-deployment-architecture-advanced-6.4.svg DM Advanced -->
<svg xmlns="http://www.w3.org/2000/svg" xmlns:xlink="http://www.w3.org/1999/xlink" xmlns:ev="http://www.w3.org/2001/xml-events"
		width="11.1702in" height="6.82005in" viewBox="0 0 804.258 491.043" xml:space="preserve" color-interpolation-filters="sRGB"
		class="st14">
	<style type="text/css">
	<![CDATA[
		.st1 {fill:url(#grad0-4);stroke:#4f87bb;stroke-width:0.75}
		.st2 {fill:none;stroke:none;stroke-width:0.25}
		.st3 {fill:#5b9bd5;font-family:Calibri;font-size:1.33333em}
		.st4 {visibility:visible}
		.st5 {fill:#5b9bd5;fill-opacity:0.22;filter:url(#filter_2);stroke:#5b9bd5;stroke-opacity:0.22}
		.st6 {fill:#5b9bd5;stroke:#c7c8c8;stroke-width:0.25}
		.st7 {fill:#feffff;font-family:Calibri;font-size:0.833336em}
		.st8 {marker-end:url(#mrkr4-55);stroke:#92d050;stroke-linecap:round;stroke-linejoin:round;stroke-width:1}
		.st9 {fill:#92d050;fill-opacity:1;stroke:#92d050;stroke-opacity:1;stroke-width:0.28409090909091}
		.st10 {fill:#ffffff;stroke:none;stroke-linecap:butt;stroke-width:7.2}
		.st11 {fill:#4f87bb;font-family:Calibri;font-size:0.666664em}
		.st12 {fill:#ffffff;stroke:none;stroke-linecap:butt}
		.st13 {font-size:1em}
		.st14 {fill:none;fill-rule:evenodd;font-size:12px;overflow:visible;stroke-linecap:square;stroke-miterlimit:3}
	]]>
	</style>

	<defs id="Patterns_And_Gradients">
		<linearGradient id="grad0-4" x1="0" y1="0" x2="1" y2="0" gradientTransform="rotate(60 0.5 0.5)">
			<stop offset="0" stop-color="#e9eff7" stop-opacity="1"/>
			<stop offset="0.24" stop-color="#f4f7fb" stop-opacity="1"/>
			<stop offset="0.54" stop-color="#feffff" stop-opacity="1"/>
		</linearGradient>
	</defs>
	<defs id="Markers">
		<g id="lend4">
			<path d="M 2 1 L 0 0 L 2 -1 L 2 1 " style="stroke:none"/>
		</g>
		<marker id="mrkr4-55" class="st9" refX="-7.04" orient="auto" markerUnits="strokeWidth" overflow="visible">
			<use xlink:href="#lend4" transform="scale(-3.52,-3.52) "/>
		</marker>
	</defs>
	<defs id="Filters">
		<filter id="filter_2">
			<feGaussianBlur stdDeviation="2"/>
		</filter>
	</defs>
	<g>
		<title>DM Advanced</title>
		<g id="shape1-1" transform="translate(18.75,-18.75)">
			<title>Rectangle</title>
			<rect x="0" y="337.215" width="158.712" height="153.829" class="st1"/>
		</g>
		<g id="shape2-5" transform="translate(44.1495,-18.2729)">
			<title>Sheet.2</title>
			<desc>DEVELOPMENT</desc>
			<rect x="0" y="461.743" width="107.913" height="29.3007" class="st2"/>
			<text x="4.08" y="481.19" class="st3">DEVELOPMENT</text>		</g>
		<g id="shape9-8" transform="translate(30.9586,-93.4769)">
			<title>Rectangle.9</title>
			<desc>STUDIO</desc>
			<g id="shadow9-9" transform="matrix(1,0,0,1,0.345598,1.97279)" class="st4">
				<rect x="0" y="465.1" width="53.4127" height="25.9433" class="st5"/>
			</g>
			<rect x="0" y="465.1" width="53.4127" height="25.9433" class="st6"/>
			<text x="11.12" y="481.07" class="st7">STUDIO</text>		</g>
		<g id="shape11-14" transform="translate(108.28,-93.4769)">
			<title>Rectangle.11</title>
			<desc>TAC</desc>
			<g id="shadow11-15" transform="matrix(1,0,0,1,0.345598,1.97279)" class="st4">
				<rect x="0" y="465.1" width="53.4127" height="25.9433" class="st5"/>
			</g>
			<rect x="0" y="465.1" width="53.4127" height="25.9433" class="st6"/>
			<text x="18.71" y="481.07" class="st7">TAC</text>		</g>
		<g id="shape12-20" transform="translate(71.3997,-134.427)">
			<title>Rectangle.12</title>
			<desc>GIT</desc>
			<g id="shadow12-21" transform="matrix(1,0,0,1,0.345598,1.97279)" class="st4">
				<rect x="0" y="465.1" width="53.4127" height="25.9433" class="st5"/>
			</g>
			<rect x="0" y="465.1" width="53.4127" height="25.9433" class="st6"/>
			<text x="19.86" y="481.07" class="st7">GIT</text>		</g>
		<g id="shape16-26" transform="translate(218.859,-53.5446)">
			<title>Rectangle.16</title>
			<rect x="0" y="372.009" width="158.712" height="119.034" class="st1"/>
		</g>
		<g id="shape17-29" transform="translate(261.589,-53.5446)">
			<title>Sheet.17</title>
			<desc>TEST</desc>
			<rect x="0" y="461.743" width="73.2517" height="29.3007" class="st2"/>
			<text x="21.25" y="481.19" class="st3">TEST</text>		</g>
		<g id="shape19-32" transform="translate(271.509,-134.579)">
			<title>Rectangle.19</title>
			<desc>TAC</desc>
			<g id="shadow19-33" transform="matrix(1,0,0,1,0.345598,1.97279)" class="st4">
				<rect x="0" y="465.1" width="53.4127" height="25.9433" class="st5"/>
			</g>
			<rect x="0" y="465.1" width="53.4127" height="25.9433" class="st6"/>
			<text x="18.71" y="481.07" class="st7">TAC</text>		</g>
		<g id="shape21-38" transform="translate(66.8478,-53.002)">
			<title>Rectangle.21</title>
			<desc>EXECUTION</desc>
			<g id="shadow21-39" transform="matrix(1,0,0,1,0.345598,1.97279)" class="st4">
				<rect x="0" y="465.1" width="62.5166" height="25.9433" class="st5"/>
			</g>
			<rect x="0" y="465.1" width="62.5166" height="25.9433" class="st6"/>
			<text x="7.67" y="481.07" class="st7">EXECUTION</text>		</g>
		<g id="shape22-44" transform="translate(266.957,-93.6295)">
			<title>Rectangle.22</title>
			<desc>EXECUTION</desc>
			<g id="shadow22-45" transform="matrix(1,0,0,1,0.345598,1.97279)" class="st4">
				<rect x="0" y="465.1" width="62.5166" height="25.9433" class="st5"/>
			</g>
			<rect x="0" y="465.1" width="62.5166" height="25.9433" class="st6"/>
			<text x="7.67" y="481.07" class="st7">EXECUTION</text>		</g>
		<g id="shape28-50" transform="translate(394.341,-291.971)">
			<title>Dynamic connector.28</title>
			<path d="M0 491.04 L0 565.84 L-259.35 565.84 L-259.35 656.55" class="st8"/>
		</g>
		<g id="shape29-56" transform="translate(394.341,-291.971)">
			<title>Dynamic connector.29</title>
			<desc>DEPLOY TO TAC</desc>
			<path d="M0 491.04 L0 565.84 L-96.13 565.84 L-96.13 615.45" class="st8"/>
			<rect x="-25.5623" y="546.866" width="51.1249" height="9.59985" class="st10"/>
			<text x="-25.56" y="554.07" class="st11">DEPLOY TO TAC</text>		</g>
		<g id="shape30-63" transform="translate(626.796,-51.2303)">
			<title>Rectangle.30</title>
			<rect x="0" y="372.009" width="158.712" height="119.034" class="st1"/>
		</g>
		<g id="shape31-66" transform="translate(652.195,-51.2303)">
			<title>Sheet.31</title>
			<desc>PRODUCTION</desc>
			<rect x="0" y="461.743" width="107.913" height="29.3007" class="st2"/>
			<text x="9.49" y="481.19" class="st3">PRODUCTION</text>		</g>
		<g id="shape32-69" transform="translate(679.445,-132.265)">
			<title>Rectangle.32</title>
			<desc>TAC</desc>
			<g id="shadow32-70" transform="matrix(1,0,0,1,0.345598,1.97279)" class="st4">
				<rect x="0" y="465.1" width="53.4127" height="25.9433" class="st5"/>
			</g>
			<rect x="0" y="465.1" width="53.4127" height="25.9433" class="st6"/>
			<text x="18.71" y="481.07" class="st7">TAC</text>		</g>
		<g id="shape33-75" transform="translate(674.893,-91.3153)">
			<title>Rectangle.33</title>
			<desc>EXECUTION</desc>
			<g id="shadow33-76" transform="matrix(1,0,0,1,0.345598,1.97279)" class="st4">
				<rect x="0" y="465.1" width="62.5166" height="25.9433" class="st5"/>
			</g>
			<rect x="0" y="465.1" width="62.5166" height="25.9433" class="st6"/>
			<text x="7.67" y="481.07" class="st7">EXECUTION</text>		</g>
		<g id="shape34-81" transform="translate(394.341,-291.971)">
			<title>Dynamic connector.34</title>
			<path d="M0 491.04 L0 565.84 L311.81 565.84 L311.81 617.77" class="st8"/>
		</g>
		<g id="shape36-86" transform="translate(422.687,-51.8209)">
			<title>Rectangle.36</title>
			<rect x="0" y="372.009" width="158.712" height="119.034" class="st1"/>
		</g>
		<g id="shape37-89" transform="translate(433.998,-51.8209)">
			<title>Sheet.37</title>
			<desc>PRE -PRODUCTION</desc>
			<rect x="0" y="461.743" width="147.402" height="29.3007" class="st2"/>
			<text x="12.59" y="481.19" class="st3">PRE -PRODUCTION</text>		</g>
		<g id="shape38-92" transform="translate(475.337,-132.856)">
			<title>Rectangle.38</title>
			<desc>TAC</desc>
			<g id="shadow38-93" transform="matrix(1,0,0,1,0.345598,1.97279)" class="st4">
				<rect x="0" y="465.1" width="53.4127" height="25.9433" class="st5"/>
			</g>
			<rect x="0" y="465.1" width="53.4127" height="25.9433" class="st6"/>
			<text x="18.71" y="481.07" class="st7">TAC</text>		</g>
		<g id="shape39-98" transform="translate(470.785,-91.9058)">
			<title>Rectangle.39</title>
			<desc>EXECUTION</desc>
			<g id="shadow39-99" transform="matrix(1,0,0,1,0.345598,1.97279)" class="st4">
				<rect x="0" y="465.1" width="62.5166" height="25.9433" class="st5"/>
			</g>
			<rect x="0" y="465.1" width="62.5166" height="25.9433" class="st6"/>
			<text x="7.67" y="481.07" class="st7">EXECUTION</text>		</g>
		<g id="shape41-104" transform="translate(314.984,-283.211)">
			<title>Rectangle.6</title>
			<rect x="0" y="301.961" width="158.712" height="189.083" class="st1"/>
		</g>
		<g id="shape42-107" transform="translate(327.684,-434.489)">
			<title>Sheet.42</title>
			<desc>DEPLOYMENT / CI</desc>
			<rect x="0" y="461.743" width="133.313" height="29.3007" class="st2"/>
			<text x="8.34" y="481.19" class="st3">DEPLOYMENT / CI</text>		</g>
		<g id="shape43-110" transform="translate(367.634,-293.711)">
			<title>Rectangle.15</title>
			<desc>NEXUS</desc>
			<g id="shadow43-111" transform="matrix(1,0,0,1,0.345598,1.97279)" class="st4">
				<rect x="0" y="465.1" width="53.4127" height="25.9433" class="st5"/>
			</g>
			<rect x="0" y="465.1" width="53.4127" height="25.9433" class="st6"/>
			<text x="12.94" y="481.07" class="st7">NEXUS</text>		</g>
		<g id="shape44-116" transform="translate(326.263,-351.605)">
			<title>Rectangle.44</title>
			<desc>JENKINS</desc>
			<g id="shadow44-117" transform="matrix(1,0,0,1,0.345598,1.97279)" class="st4">
				<rect x="0" y="465.1" width="53.4127" height="25.9433" class="st5"/>
			</g>
			<rect x="0" y="465.1" width="53.4127" height="25.9433" class="st6"/>
			<text x="10.06" y="481.07" class="st7">JENKINS</text>		</g>
		<g id="shape45-122" transform="translate(408.023,-351.605)">
			<title>Rectangle.23</title>
			<desc>CI BUILDER</desc>
			<g id="shadow45-123" transform="matrix(1,0,0,1,0.345598,1.97279)" class="st4">
				<rect x="0" y="465.1" width="53.4127" height="25.9433" class="st5"/>
			</g>
			<rect x="0" y="465.1" width="53.4127" height="25.9433" class="st6"/>
			<text x="4.13" y="481.07" class="st7">CI BUILDER</text>		</g>
		<g id="shape46-128" transform="translate(354.522,-395.326)">
			<title>Rectangle.24</title>
			<desc>COMMANDLINE</desc>
			<g id="shadow46-129" transform="matrix(1,0,0,1,0.345598,1.97279)" class="st4">
				<rect x="0" y="465.1" width="79.6367" height="25.9433" class="st5"/>
			</g>
			<rect x="0" y="465.1" width="79.6367" height="25.9433" class="st6"/>
			<text x="7.06" y="481.07" class="st7">COMMANDLINE</text>		</g>
		<g id="shape47-134" transform="translate(352.97,-351.605)">
			<title>Dynamic connector.26</title>
			<desc>DEPLOY ARTIFACT</desc>
			<path d="M0 491.04 L0 535.97 L7.62 535.97" class="st8"/>
			<rect x="-17.3178" y="502.488" width="31.3555" height="19.1997" class="st12"/>
			<text x="-14.4" y="509.69" class="st11">DEPLOY <tspan x="-17.32" dy="1.2em" class="st13">ARTIFACT</tspan></text>		</g>
		<g id="shape40-142" transform="translate(394.341,-293.711)">
			<title>Dynamic connector.40</title>
			<path d="M0 491.04 L0 567.58 L107.7 567.58 L107.7 618.91" class="st8"/>
		</g>
	</g>
</svg>
