<?xml version="1.0" encoding="UTF-8" standalone="no"?>
<!DOCTYPE svg PUBLIC "-//W3C//DTD SVG 1.1//EN" "http://www.w3.org/Graphics/SVG/1.1/DTD/svg11.dtd">
<!-- Generated by Microsoft Visio, SVG Export mdm-physical-architecture-preprod-prod-6.4.svg Physical Talend Architecture -->
<svg xmlns="http://www.w3.org/2000/svg" xmlns:xlink="http://www.w3.org/1999/xlink" xmlns:ev="http://www.w3.org/2001/xml-events"
		width="11.4981in" height="8.3879in" viewBox="0 0 827.866 603.929" xml:space="preserve" color-interpolation-filters="sRGB"
		class="st32">
	<style type="text/css">
	<![CDATA[
		.st1 {fill:#ffffff;stroke:#7f7f7f;stroke-linecap:round;stroke-linejoin:round;stroke-width:1}
		.st2 {fill:#7f7f7f;font-family:Calibri;font-size:0.916672em;font-weight:bold}
		.st3 {fill:#f2f2f2;stroke:#d8d8d8;stroke-dasharray:7,5;stroke-linecap:round;stroke-linejoin:round;stroke-width:1}
		.st4 {fill:none;stroke:none;stroke-linecap:round;stroke-linejoin:round;stroke-width:0.75}
		.st5 {fill:#000000;font-family:Calibri;font-size:1.16666em;font-weight:bold}
		.st6 {fill:none;stroke:#7030a0;stroke-dasharray:10.5,7.5;stroke-linecap:round;stroke-linejoin:round;stroke-width:1.5}
		.st7 {fill:#7030a0;font-family:Calibri;font-size:0.916672em;font-weight:bold}
		.st8 {fill:#ffffff;stroke:#000000;stroke-linecap:round;stroke-linejoin:round;stroke-width:1}
		.st9 {fill:#0070c0;font-family:Calibri;font-size:0.916672em;font-weight:bold}
		.st10 {fill:#dde2cd;stroke:#000000;stroke-linecap:round;stroke-linejoin:round;stroke-width:0.24}
		.st11 {fill:#000000;font-family:Calibri;font-size:0.666664em}
		.st12 {font-size:1em}
		.st13 {fill:#c6d8f0;stroke:#000000;stroke-linecap:round;stroke-linejoin:round;stroke-width:0.24}
		.st14 {fill:#000000;font-family:Calibri;font-size:0.916672em;font-weight:bold}
		.st15 {fill:#dde2cd;stroke:#000000;stroke-linecap:round;stroke-linejoin:round;stroke-width:1}
		.st16 {fill:#ffffff;stroke:#000000;stroke-linecap:round;stroke-linejoin:round;stroke-width:0.24}
		.st17 {fill:#ffffff}
		.st18 {stroke:#000000;stroke-linecap:round;stroke-linejoin:round;stroke-width:0.24}
		.st19 {fill:#000000;font-size:0.727266em}
		.st20 {fill:#e5b9b5;stroke:#000000;stroke-linecap:round;stroke-linejoin:round;stroke-width:1}
		.st21 {marker-end:url(#mrkr13-232);marker-start:url(#mrkr13-230);stroke:#00b050;stroke-linecap:round;stroke-linejoin:round;stroke-width:1.5}
		.st22 {fill:#00b050;fill-opacity:1;stroke:#00b050;stroke-opacity:1;stroke-width:0.37313432835821}
		.st23 {fill:#ffffff;stroke:none;stroke-linecap:butt;stroke-width:7.2}
		.st24 {fill:#00b050;font-family:Calibri;font-size:0.666664em}
		.st25 {marker-end:url(#mrkr13-272);marker-start:url(#mrkr13-270);stroke:#ffc000;stroke-linecap:round;stroke-linejoin:round;stroke-width:1.5}
		.st26 {fill:#ffc000;fill-opacity:1;stroke:#ffc000;stroke-opacity:1;stroke-width:0.37313432835821}
		.st27 {marker-end:url(#mrkr4-299);stroke:#ffc000;stroke-linecap:round;stroke-linejoin:round;stroke-width:1.5}
		.st28 {marker-end:url(#mrkr4-305);stroke:#00b050;stroke-linecap:round;stroke-linejoin:round;stroke-width:1.5}
		.st29 {fill:none;stroke:#7f7f7f;stroke-linecap:round;stroke-linejoin:round;stroke-width:0.75}
		.st30 {fill:#7f7f7f;font-family:Calibri;font-size:0.75em;font-weight:bold}
		.st31 {fill:#ffffff;stroke:#ff0000;stroke-dasharray:7,5;stroke-linecap:round;stroke-linejoin:round;stroke-width:1}
		.st32 {fill:none;fill-rule:evenodd;font-size:12px;overflow:visible;stroke-linecap:square;stroke-miterlimit:3}
	]]>
	</style>

	<defs id="Markers">
		<g id="lend13">
			<path d="M 3 1 L 0 0 L 3 -1 L 3 1 " style="stroke:none"/>
		</g>
		<marker id="mrkr13-230" class="st22" refX="7.8" orient="auto" markerUnits="strokeWidth" overflow="visible">
			<use xlink:href="#lend13" transform="scale(2.68) "/>
		</marker>
		<marker id="mrkr13-232" class="st22" refX="-8.04" orient="auto" markerUnits="strokeWidth" overflow="visible">
			<use xlink:href="#lend13" transform="scale(-2.68,-2.68) "/>
		</marker>
		<marker id="mrkr13-270" class="st26" refX="7.8" orient="auto" markerUnits="strokeWidth" overflow="visible">
			<use xlink:href="#lend13" transform="scale(2.68) "/>
		</marker>
		<marker id="mrkr13-272" class="st26" refX="-8.04" orient="auto" markerUnits="strokeWidth" overflow="visible">
			<use xlink:href="#lend13" transform="scale(-2.68,-2.68) "/>
		</marker>
		<g id="lend4">
			<path d="M 2 1 L 0 0 L 2 -1 L 2 1 " style="stroke:none"/>
		</g>
		<marker id="mrkr4-299" class="st26" refX="-5.36" orient="auto" markerUnits="strokeWidth" overflow="visible">
			<use xlink:href="#lend4" transform="scale(-2.68,-2.68) "/>
		</marker>
		<marker id="mrkr4-305" class="st22" refX="-5.36" orient="auto" markerUnits="strokeWidth" overflow="visible">
			<use xlink:href="#lend4" transform="scale(-2.68,-2.68) "/>
		</marker>
	</defs>
	<g>
		<title>PRE-PROD / PROD</title>
		<g id="shape228-1" transform="translate(18.7835,-18.5)">
			<title>Box.228</title>
			<desc>Legend</desc>
			<rect x="0" y="518.89" width="106.866" height="85.0394" class="st1"/>
			<text x="37.06" y="532.79" class="st2">Legend</text>		</g>
		<g id="shape221-4" transform="translate(19.2087,-146.059)">
			<title>Box.221</title>
			<path d="M0 603.93 L116.22 603.93 L116.22 414.01 L0 414.01 L0 603.93 Z" class="st3"/>
		</g>
		<g id="shape222-6" transform="translate(19.2087,-149.461)">
			<title>Sheet.222</title>
			<desc>Client</desc>
			<rect x="0" y="578.984" width="109.134" height="24.9449" class="st4"/>
			<text x="37.72" y="595.66" class="st5">Client</text>		</g>
		<g id="shape194-9" transform="translate(647.791,-236.768)">
			<title>Box.194</title>
			<path d="M0 603.93 L161.57 603.93 L161.57 496.21 L0 496.21 L0 603.93 Z" class="st3"/>
		</g>
		<g id="shape189-11" transform="translate(168.028,-24.1693)">
			<title>Box.189</title>
			<path d="M0 603.93 L170.08 603.93 L170.08 255.27 L0 255.27 L0 603.93 Z" class="st3"/>
		</g>
		<g id="shape167-13" transform="translate(446.642,-26.9252)">
			<title>Box.263</title>
			<path d="M0 603.93 L175.32 603.93 L175.32 45.43 L0 45.43 L0 603.93 Z" class="st3"/>
		</g>
		<g id="shape168-15" transform="translate(486.217,-558.783)">
			<title>Sheet.168</title>
			<desc>Execution</desc>
			<rect x="0" y="578.984" width="91.1811" height="24.9449" class="st4"/>
			<text x="17.08" y="595.66" class="st5">Execution </text>		</g>
		<g id="shape169-18" transform="translate(453.831,-382.043)">
			<title>Box.322</title>
			<desc>Virtual Jobserver</desc>
			<path d="M0 603.93 L160.37 603.93 L160.37 433.85 L0 433.85 L0 603.93 Z" class="st6"/>
			<text x="41.49" y="447.75" class="st7">Virtual Jobserver </text>		</g>
		<g id="shape165-21" transform="translate(645.453,-22.752)">
			<title>Box.260</title>
			<path d="M0 603.93 L163.42 603.93 L163.42 414.01 L0 414.01 L0 603.93 Z" class="st3"/>
		</g>
		<g id="shape166-23" transform="translate(673.799,-186.028)">
			<title>Sheet.166</title>
			<desc>Database</desc>
			<rect x="0" y="578.984" width="109.134" height="24.9449" class="st4"/>
			<text x="27.29" y="595.66" class="st5">Database</text>		</g>
		<g id="shape163-26" transform="translate(18.5,-429.524)">
			<title>Box.261</title>
			<path d="M0 603.93 L337.32 603.93 L337.32 452.1 L0 452.1 L0 603.93 Z" class="st3"/>
		</g>
		<g id="shape164-28" transform="translate(119.839,-557.083)">
			<title>Sheet.164</title>
			<desc>Administration</desc>
			<rect x="0" y="578.984" width="131.811" height="24.9449" class="st4"/>
			<text x="22.19" y="595.66" class="st5">Administration</text>		</g>
		<g id="shape98-31" transform="translate(463.539,-185.744)">
			<title>Box.98</title>
			<desc>ESB Server 1</desc>
			<rect x="0" y="436.118" width="141.732" height="167.811" class="st8"/>
			<text x="42.58" y="450.02" class="st9">ESB Server 1</text>		</g>
		<g id="shape3-34" transform="translate(29.8386,-500.39)">
			<title>Box.3</title>
			<desc>TAC Server (Master)</desc>
			<rect x="0" y="544.402" width="141.732" height="59.5276" class="st8"/>
			<text x="24.99" y="558.3" class="st9">TAC Server (Master)</text>		</g>
		<g id="shape1-37" transform="translate(44.0118,-515.078)">
			<title>Box</title>
			<desc>TAC (Collapsed)</desc>
			<rect x="0" y="584.087" width="113.386" height="19.8425" class="st10"/>
			<text x="31.21" y="595.29" class="st11">TAC (Collapsed)</text>		</g>
		<g id="shape12-40" transform="translate(199.917,-489.257)">
			<title>Box.12</title>
			<desc>TAC Server (HA – for quartz cluster only)</desc>
			<rect x="0" y="533.238" width="141.732" height="70.6913" class="st8"/>
			<text x="8.46" y="547.14" class="st9">TAC Server (HA – for quartz <tspan x="42.62" dy="1.2em" class="st12">cluster only)</tspan></text>		</g>
		<g id="shape16-44" transform="translate(369.996,-52.0433)">
			<title>Box.16</title>
			<desc>S H A R E D F I L E S Y S T E M</desc>
			<rect x="0" y="282.905" width="36.8504" height="321.024" class="st13"/>
			<text x="15.83" y="310.01" class="st14">S <tspan x="14.96" dy="1.2em" class="st12">H </tspan><tspan x="15.09"
						dy="1.2em" class="st12">A </tspan><tspan x="15.33" dy="1.2em" class="st12">R </tspan><tspan x="15.74"
						dy="1.2em" class="st12">E </tspan><tspan x="14.96" dy="1.2em" class="st12">D  </tspan><tspan x="14.66"
						dy="2.4em" class="st12"> </tspan>F <tspan x="16.96" dy="1.2em" class="st12">I </tspan><tspan x="16.1"
						dy="1.2em" class="st12">L </tspan><tspan x="15.74" dy="1.2em" class="st12">E  </tspan><tspan x="14.58"
						dy="2.4em" class="st12"> </tspan>S <tspan x="15.57" dy="1.2em" class="st12">Y </tspan><tspan x="15.83"
						dy="1.2em" class="st12">S </tspan><tspan x="15.7" dy="1.2em" class="st12">T </tspan><tspan x="15.74"
						dy="1.2em" class="st12">E </tspan><tspan x="13.62" dy="1.2em" class="st12">M</tspan></text>		</g>
		<g id="shape46-62" transform="translate(29.0118,-180.075)">
			<title>Box.46</title>
			<desc>Test / Operations client PC</desc>
			<rect x="0" y="473.535" width="96.378" height="130.394" class="st8"/>
			<text x="8.28" y="487.44" class="st9">Test / Operations <tspan x="28.48" dy="1.2em" class="st12">client PC</tspan></text>		</g>
		<g id="shape47-66" transform="translate(43.185,-256.61)">
			<title>Box.47</title>
			<desc>Web Browser</desc>
			<rect x="0" y="586.921" width="68.0315" height="17.0079" class="st10"/>
			<text x="11.97" y="598.12" class="st11">Web Browser</text>		</g>
		<g id="shape48-69" transform="translate(43.185,-228.264)">
			<title>Box.48</title>
			<desc>DB Clients</desc>
			<rect x="0" y="586.921" width="68.0315" height="17.0079" class="st10"/>
			<text x="17.51" y="598.12" class="st11">DB Clients</text>		</g>
		<g id="shape49-72" transform="translate(43.185,-191.413)">
			<title>Box.49</title>
			<desc>File Tools (FTP etc.)</desc>
			<rect x="0" y="575.583" width="68.0315" height="28.3465" class="st10"/>
			<text x="10.83" y="586.78" class="st11">File Tools (FTP <tspan x="26.77" dy="1.2em" class="st12">etc.)</tspan></text>		</g>
		<g id="shape17-76" transform="translate(463.539,-469.917)">
			<title>Box.17</title>
			<desc>Job Server 1</desc>
			<rect x="0" y="547.236" width="141.732" height="56.6929" class="st8"/>
			<text x="43.21" y="561.14" class="st9">Job Server 1</text>		</g>
		<g id="shape20-79" transform="translate(477.713,-486.925)">
			<title>Box.20</title>
			<desc>JobServer</desc>
			<rect x="0" y="586.921" width="113.386" height="17.0079" class="st15"/>
			<text x="40.79" y="598.12" class="st11">JobServer</text>		</g>
		<g id="shape18-82" transform="translate(462.122,-396.217)">
			<title>Box.18</title>
			<desc>Job Server 2</desc>
			<rect x="0" y="547.236" width="141.732" height="56.6929" class="st8"/>
			<text x="43.21" y="561.14" class="st9">Job Server 2</text>		</g>
		<g id="shape19-85" transform="translate(476.295,-413.224)">
			<title>Box.19</title>
			<desc>JobServer</desc>
			<rect x="0" y="586.921" width="113.386" height="17.0079" class="st15"/>
			<text x="40.79" y="598.12" class="st11">JobServer</text>		</g>
		<g id="shape85-88" transform="translate(182.201,-165.902)">
			<title>Box.85</title>
			<desc>MDM Server 1</desc>
			<rect x="0" y="428.181" width="141.732" height="175.748" class="st8"/>
			<text x="37.86" y="442.08" class="st9">MDM Server 1</text>		</g>
		<g id="shape86-91" transform="translate(196.374,-284.602)">
			<title>Box.87</title>
			<desc>Tomcat 1</desc>
			<rect x="0" y="566.37" width="113.386" height="37.5591" class="st10"/>
			<text x="41.56" y="577.57" class="st11">Tomcat 1</text>		</g>
		<g id="shape87-94" transform="translate(210.547,-288.146)">
			<title>Data table.88</title>
			<desc>MDM</desc>
			<path d="M0 601.09 L85.04 601.09 L85.04 586.92 L0 586.92 L0 601.09 Z" class="st16"/>
			<text x="33.22" y="597.55" class="st11">MDM</text>		</g>
		<g id="shape88-97" transform="translate(196.374,-242.083)">
			<title>Box.91</title>
			<desc>Tomcat 2</desc>
			<rect x="0" y="567.079" width="113.386" height="36.8504" class="st10"/>
			<text x="41.56" y="578.28" class="st11">Tomcat 2</text>		</g>
		<g id="shape89-100" transform="translate(210.547,-244.917)">
			<title>Data table.92</title>
			<desc>MDM Workflow BPM</desc>
			<path d="M0 601.09 L85.04 601.09 L85.04 586.92 L0 586.92 L0 601.09 Z" class="st16"/>
			<text x="7.76" y="597.55" class="st11">MDM Workflow BPM</text>		</g>
		<g id="shape90-103" transform="translate(477.713,-260.862)">
			<title>Box.95</title>
			<desc>Talend ESB</desc>
			<rect x="0" y="534.48" width="113.386" height="69.4488" class="st10"/>
			<text x="38.85" y="545.68" class="st11">Talend ESB</text>		</g>
		<g id="shape91-106" transform="translate(491.886,-270.075)">
			<title>Data table.96</title>
			<desc>Services Routes Infrastructure Services</desc>
			<path d="M0 603.22 L85.04 603.22 L85.04 560.7 L0 560.7 L0 603.22 Z" class="st17"/>
			<path d="M0 603.22 L85.04 603.22 L85.04 560.7 L0 560.7 L0 603.22" class="st18"/>
			<path d="M0 574.87 L85.04 574.87" class="st18"/>
			<path d="M0 589.05 L85.04 589.05" class="st18"/>
			<text x="29.33" y="571.33" class="st11">Services <tspan x="31.24" dy="1.772em" class="st12">Routes </tspan><tspan
						x="5.86" dy="1.772em" class="st12">Infrastructure Services</tspan></text>		</g>
		<g id="shape93-114" transform="translate(182.201,-35.5079)">
			<title>Box.93</title>
			<desc>MDM Server 2</desc>
			<rect x="0" y="484.874" width="141.732" height="119.055" class="st8"/>
			<text x="37.86" y="498.77" class="st9">MDM Server 2</text>		</g>
		<g id="shape94-117" transform="translate(196.374,-46.8465)">
			<title>Box.94</title>
			<desc>Tomcat</desc>
			<rect x="0" y="559.992" width="113.386" height="43.937" class="st10"/>
			<text x="44.49" y="571.19" class="st11">Tomcat </text>		</g>
		<g id="shape95-120" transform="translate(210.547,-56.7677)">
			<title>Data table.95</title>
			<desc>MDM</desc>
			<path d="M0 601.09 L85.04 601.09 L85.04 586.92 L0 586.92 L0 601.09 Z" class="st16"/>
			<text x="33.22" y="597.55" class="st11">MDM</text>		</g>
		<g id="shape102-123" transform="translate(463.539,-29.1299)">
			<title>Box.102</title>
			<desc>ESB Server 2</desc>
			<rect x="0" y="459.362" width="141.732" height="144.567" class="st8"/>
			<text x="42.58" y="473.26" class="st9">ESB Server 2</text>		</g>
		<g id="shape103-126" transform="translate(477.713,-40.4685)">
			<title>Box.103</title>
			<desc>Talend ESB</desc>
			<rect x="0" y="534.48" width="113.386" height="69.4488" class="st10"/>
			<text x="38.85" y="545.68" class="st11">Talend ESB</text>		</g>
		<g id="shape119-129" transform="translate(656.791,-34.863)">
			<title>Box.109</title>
			<desc>Database cluster</desc>
			<rect x="0" y="458.072" width="141.732" height="145.857" class="st8"/>
			<text x="32.76" y="471.97" class="st9">Database cluster</text>		</g>
		<g id="shape120-132" transform="translate(671.435,-137.555)">
			<title>Box.120</title>
			<desc>{container}_MASTER</desc>
			<rect x="0" y="586.921" width="113.386" height="17.0079" class="st10"/>
			<text x="22.98" y="598.12" class="st11">{container}_MASTER</text>		</g>
		<g id="shape121-135" transform="translate(671.435,-87.122)">
			<title>Box.104</title>
			<desc>{container}_STAGING</desc>
			<rect x="0" y="586.921" width="113.386" height="17.0079" class="st10"/>
			<text x="21.88" y="598.12" class="st11">{container}_STAGING</text>		</g>
		<g id="shape122-138" transform="translate(671.435,-69.6417)">
			<title>Box.105</title>
			<desc>MDM_SYSTEM</desc>
			<rect x="0" y="586.921" width="113.386" height="17.0079" class="st10"/>
			<text x="32.45" y="598.12" class="st11">MDM_SYSTEM</text>		</g>
		<g id="shape123-141" transform="translate(671.435,-120.547)">
			<title>Box.106</title>
			<desc>UpdateReport_MASTER</desc>
			<rect x="0" y="586.921" width="113.386" height="17.0079" class="st10"/>
			<text x="17.93" y="598.12" class="st11">UpdateReport_MASTER</text>		</g>
		<g id="shape124-144" transform="translate(671.435,-103.657)">
			<title>Box.107</title>
			<desc>CrossReferencing_MASTER</desc>
			<rect x="0" y="586.921" width="113.386" height="17.0079" class="st10"/>
			<text x="12.84" y="598.12" class="st11">CrossReferencing_MASTER</text>		</g>
		<g id="shape118-147" transform="translate(671.177,-52.5157)">
			<title>Box.40</title>
			<desc>TAC</desc>
			<rect x="0" y="586.921" width="113.386" height="17.0079" class="st10"/>
			<text x="50.3" y="598.12" class="st11">TAC</text>		</g>
		<g id="shape104-150" transform="translate(491.886,-48.6181)">
			<title>Data table.104</title>
			<desc>Services Routes Infrastructure Services</desc>
			<path d="M0 603.22 L85.04 603.22 L85.04 560.7 L0 560.7 L0 603.22 Z" class="st17"/>
			<path d="M0 603.22 L85.04 603.22 L85.04 560.7 L0 560.7 L0 603.22" class="st18"/>
			<path d="M0 574.87 L85.04 574.87" class="st18"/>
			<path d="M0 589.05 L85.04 589.05" class="st18"/>
			<text x="29.33" y="571.33" class="st11">Services <tspan x="31.24" dy="1.772em" class="st12">Routes </tspan><tspan
						x="5.86" dy="1.772em" class="st12">Infrastructure Services</tspan></text>		</g>
		<g id="shape138-158" transform="translate(196.374,-174.76)">
			<title>Box.138</title>
			<desc>Active MQ</desc>
			<rect x="0" y="581.961" width="113.386" height="21.9685" class="st10"/>
			<text x="39.62" y="593.16" class="st11">Active MQ </text>		</g>
		<g id="shape139-161" transform="translate(196.374,-109.917)">
			<title>Box.139</title>
			<desc>Active MQ</desc>
			<rect x="0" y="581.961" width="113.386" height="21.9685" class="st10"/>
			<text x="39.62" y="593.16" class="st11">Active MQ </text>		</g>
		<g id="shape145-164" transform="translate(659.13,-252.358)">
			<title>Box.145</title>
			<desc>Talend DQ Server</desc>
			<rect x="0" y="540.15" width="136.063" height="63.7795" class="st8"/>
			<text x="28.19" y="554.05" class="st9">Talend DQ Server </text>		</g>
		<g id="shape151-167" transform="translate(670.468,-259.445)">
			<title>Box.118</title>
			<desc>Data Prep / Talend Data Stewardship (Collapsed – non HA)</desc>
			<rect x="0" y="567.336" width="113.386" height="36.5927" class="st10"/>
			<text x="17.74" y="578.54" class="st11">Data Prep / Talend Data <tspan x="8.59" dy="1.2em" class="st12">Stewardship (Collapsed </tspan>– non <tspan
						x="50.67" dy="1.2em" class="st12">HA)</tspan></text>		</g>
		<g id="shape162-172" transform="translate(214.091,-502.013)">
			<title>Box.162</title>
			<desc>TAC (Collapsed)</desc>
			<rect x="0" y="584.087" width="113.386" height="19.8425" class="st10"/>
			<text x="31.21" y="595.29" class="st11">TAC (Collapsed)</text>		</g>
		<g id="shape171-175" transform="translate(647.791,-367.145)">
			<title>Box.330</title>
			<path d="M0 603.93 L161.57 603.93 L161.57 388.46 L0 388.46 L0 603.93 Z" class="st3"/>
		</g>
		<g id="shape172-177" transform="translate(657.713,-557.317)">
			<title>Sheet.172</title>
			<desc>SDLC</desc>
			<rect x="0" y="578.984" width="131.811" height="24.9449" class="st4"/>
			<text x="51.52" y="595.66" class="st5">SDLC</text>		</g>
		<g id="shape173-180" transform="translate(657.713,-463.523)">
			<title>Box.332</title>
			<desc>Shared Nexus (Same server and repositories as in TEST, Pre-Pr...</desc>
			<rect x="0" y="524.876" width="142.583" height="79.0535" class="st8"/>
			<text x="40.04" y="538.78" class="st9">Shared Nexus <tspan x="12.3" dy="1.312em" class="st19"> </tspan><tspan
						class="st19">(Same server and repositories as in </tspan><tspan x="29.75" dy="1.2em" class="st19">TEST, Pre</tspan><tspan
						class="st19">-</tspan><tspan class="st19">Prod and Prod)</tspan></text>		</g>
		<g id="shape176-188" transform="translate(658.563,-379.35)">
			<title>Box.335</title>
			<desc>CI Server (Same server as in TEST, Pre-Prod and Prod)</desc>
			<rect x="0" y="531.962" width="140.315" height="71.9669" class="st8"/>
			<text x="49.89" y="545.86" class="st9">CI Server  <tspan x="7.56" dy="1.312em" class="st19">(Same server as in TEST, Pre</tspan><tspan
						class="st19">-</tspan><tspan class="st19">Prod and </tspan><tspan x="61.06" dy="1.2em" class="st19">Prod)</tspan></text>		</g>
		<g id="shape181-195" transform="translate(672.169,-391.114)">
			<title>Box.181</title>
			<desc>CI (Collapsed)</desc>
			<rect x="0" y="582.102" width="113.386" height="21.8268" class="st10"/>
			<text x="34.47" y="593.3" class="st11">CI (Collapsed)</text>		</g>
		<g id="shape75-198" transform="translate(671.319,-475.287)">
			<title>Box.56</title>
			<desc>Nexus (Collapsed)</desc>
			<rect x="0" y="582.102" width="113.386" height="21.8268" class="st10"/>
			<text x="27.64" y="593.3" class="st11">Nexus (Collapsed)</text>		</g>
		<g id="shape184-201" transform="translate(38.3425,-387.004)">
			<title>Box.184</title>
			<desc>LOAD BALANCER</desc>
			<rect x="0" y="571.331" width="323.15" height="32.5984" class="st20"/>
			<text x="123.1" y="596.03" class="st14">LOAD BALANCER</text>		</g>
		<g id="shape190-204" transform="translate(196.374,-344.938)">
			<title>Sheet.190</title>
			<desc>MDM</desc>
			<rect x="0" y="576.036" width="111.969" height="27.8929" class="st4"/>
			<text x="39.34" y="594.18" class="st5">MDM</text>		</g>
		<g id="shape192-207" transform="translate(176.531,-100.705)">
			<title>Box.192</title>
			<desc>MDM JMS Cluster (Master / Slave)</desc>
			<path d="M0 603.93 L153.07 603.93 L153.07 473.54 L0 473.54 L0 603.93 Z" class="st6"/>
			<text x="52.98" y="487.44" class="st7">MDM JMS <tspan x="22.59" dy="1.2em" class="st12">Cluster (Master / Slave)</tspan></text>		</g>
		<g id="shape195-211" transform="translate(671.886,-317.839)">
			<title>Sheet.195</title>
			<desc>Self Service</desc>
			<rect x="0" y="578.984" width="109.134" height="24.9449" class="st4"/>
			<text x="21.41" y="595.66" class="st5">Self Service</text>		</g>
		<g id="shape196-214" transform="translate(477.713,-194.957)">
			<title>Box.196</title>
			<desc>Active MQ</desc>
			<rect x="0" y="581.961" width="113.386" height="21.9685" class="st10"/>
			<text x="39.62" y="593.16" class="st11">Active MQ </text>		</g>
		<g id="shape197-217" transform="translate(477.713,-129.406)">
			<title>Box.197</title>
			<desc>Active MQ</desc>
			<rect x="0" y="581.961" width="113.386" height="21.9685" class="st10"/>
			<text x="39.62" y="593.16" class="st11">Active MQ </text>		</g>
		<g id="shape198-220" transform="translate(457.87,-117.713)">
			<title>Box.198</title>
			<desc>ESB JMS Cluster (Master / Slave)</desc>
			<path d="M0 603.93 L153.07 603.93 L153.07 470.7 L0 470.7 L0 603.93 Z" class="st6"/>
			<text x="57.7" y="484.6" class="st7">ESB JMS <tspan x="22.59" dy="1.2em" class="st12">Cluster (Master / Slave)</tspan></text>		</g>
		<g id="shape200-224" transform="translate(70.2982,-310.468)">
			<title>Dynamic connector</title>
			<path d="M6.9 592.23 L6.9 591.87 L6.9 590.43 L7.27 590.43 L7.27 539.45" class="st21"/>
		</g>
		<g id="shape203-233" transform="translate(150.311,-387.004)">
			<title>Dynamic connector.203</title>
			<path d="M0 615.63 L0 615.99 L0 737.16 L19.83 737.16" class="st21"/>
		</g>
		<g id="shape204-240" transform="translate(150.311,-387.004)">
			<title>Dynamic connector.204</title>
			<desc>Sticky Sessions</desc>
			<path d="M0 615.63 L0 615.99 L0 895.9 L19.83 895.9" class="st21"/>
			<rect x="-13.6502" y="756.259" width="27.3005" height="19.1997" class="st23"/>
			<text x="-9.42" y="763.46" class="st24">Sticky <tspan x="-13.65" dy="1.2em" class="st12">Sessions</tspan></text>		</g>
		<g id="shape205-250" transform="translate(363.618,-408.264)">
			<title>Dynamic connector.205</title>
			<path d="M11.7 603.93 L12.06 603.93 L71.57 603.93 L71.57 744.24 L89.99 744.24" class="st21"/>
		</g>
		<g id="shape206-257" transform="translate(364.327,-408.264)">
			<title>Dynamic connector.206</title>
			<path d="M11.7 603.93 L12.06 603.93 L70.87 603.93 L70.87 910.78 L89.99 910.78" class="st21"/>
		</g>
		<g id="shape207-264" transform="translate(309.76,-178.806)">
			<title>Dynamic connector.207</title>
			<path d="M11.7 596.93 L12.06 596.93 L48.18 596.75" class="st25"/>
		</g>
		<g id="shape208-273" transform="translate(309.76,-120.902)">
			<title>Dynamic connector.208</title>
			<path d="M11.7 603.93 L12.06 603.93 L35.43 603.93 L35.43 538.79 L48.18 538.79" class="st25"/>
		</g>
		<g id="shape217-280" transform="translate(463.539,-79.3194)">
			<title>Dynamic connector.217</title>
			<path d="M-11.7 610.89 L-12.06 610.89 L-13.5 610.89 L-13.5 611.14 L-44.63 611.14" class="st25"/>
		</g>
		<g id="shape223-287" transform="translate(406.846,-324.849)">
			<title>Dynamic connector.223</title>
			<path d="M11.7 610.89 L12.06 610.89 L13.5 610.89 L13.5 611.14 L25.35 611.14 A3 3 0 0 1 31.35 611.14 L44.74 611.14"
					class="st25"/>
		</g>
		<g id="shape225-294" transform="translate(52.8701,-82.7047)">
			<title>Dynamic connector.225</title>
			<path d="M0 610.59 L0 611.44 L34.48 611.44" class="st27"/>
		</g>
		<g id="shape227-300" transform="translate(51.0984,-51.1457)">
			<title>Dynamic connector.227</title>
			<path d="M0 610.59 L0 611.44 L34.48 611.44" class="st28"/>
		</g>
		<g id="shape229-306" transform="translate(18.7835,-51.0984)">
			<title>Sheet.229</title>
			<desc>Use of shared file system</desc>
			<rect x="0" y="569.913" width="106.016" height="34.0157" class="st29"/>
			<text x="6.28" y="595.92" class="st30">Use of shared file system</text>		</g>
		<g id="shape231-309" transform="translate(18.8524,-19.3268)">
			<title>Sheet.231</title>
			<desc>Comms via load balancer</desc>
			<rect x="0" y="572.157" width="106.797" height="31.7717" class="st29"/>
			<text x="6.69" y="597.04" class="st30">Comms via load balancer</text>		</g>
		<g id="shape232-312" transform="translate(29.8386,-435.665)">
			<title>Box.58</title>
			<desc>Log Server</desc>
			<path d="M0 603.93 L141.73 603.93 L141.73 546.19 L0 546.19 L0 603.93 Z" class="st31"/>
			<text x="47.08" y="560.09" class="st9">Log Server</text>		</g>
		<g id="shape233-315" transform="translate(44.0118,-444.042)">
			<title>Box.64</title>
			<desc>Logserver (ELK stack collapsed)</desc>
			<rect x="0" y="577" width="113.386" height="26.9291" class="st10"/>
			<text x="40.88" y="588.2" class="st11">Logserver <tspan x="23.11" dy="1.2em" class="st12">(ELK stack collapsed)</tspan></text>		</g>
	</g>
</svg>
