<?xml version="1.0" encoding="UTF-8" standalone="no"?>
<!DOCTYPE svg PUBLIC "-//W3C//DTD SVG 1.1//EN" "http://www.w3.org/Graphics/SVG/1.1/DTD/svg11.dtd">
<!-- Generated by Microsoft Visio, SVG Export data-management-physical-architecture-preprod-prod-6.4.svg PRE-PROD / PROD -->
<svg xmlns="http://www.w3.org/2000/svg" xmlns:xlink="http://www.w3.org/1999/xlink" xmlns:ev="http://www.w3.org/2001/xml-events"
		width="11.7326in" height="8.26678in" viewBox="0 0 844.749 595.208" xml:space="preserve" color-interpolation-filters="sRGB"
		class="st29">
	<style type="text/css">
	<![CDATA[
		.st1 {fill:#f2f2f2;stroke:#d8d8d8;stroke-dasharray:7,5;stroke-linecap:round;stroke-linejoin:round;stroke-width:1}
		.st2 {fill:#ffffff;stroke:#000000;stroke-linecap:round;stroke-linejoin:round;stroke-width:1}
		.st3 {fill:#0070c0;font-family:Calibri;font-size:0.916672em;font-weight:bold}
		.st4 {fill:#dde2cd;stroke:#000000;stroke-linecap:round;stroke-linejoin:round;stroke-width:0.24}
		.st5 {fill:#000000;font-family:Calibri;font-size:0.666664em}
		.st6 {font-size:1em}
		.st7 {fill:#ffffff;stroke:#000000;stroke-linecap:round;stroke-linejoin:round;stroke-width:0.24}
		.st8 {fill:none;stroke:none;stroke-linecap:round;stroke-linejoin:round;stroke-width:0.75}
		.st9 {fill:#000000;font-family:Calibri;font-size:1.5em;font-weight:bold}
		.st10 {fill:#ffffff;stroke:#ff0000;stroke-dasharray:7,5;stroke-linecap:round;stroke-linejoin:round;stroke-width:1}
		.st11 {fill:#0070c0;font-family:Calibri;font-size:0.833336em;font-weight:bold}
		.st12 {marker-end:url(#mrkr4-76);stroke:#00b050;stroke-linecap:round;stroke-linejoin:round;stroke-width:1.5}
		.st13 {fill:#00b050;fill-opacity:1;stroke:#00b050;stroke-opacity:1;stroke-width:0.37313432835821}
		.st14 {fill:#ffffff;stroke:none;stroke-linecap:butt;stroke-width:7.2}
		.st15 {fill:#00b050;font-family:Calibri;font-size:0.666664em}
		.st16 {marker-end:url(#mrkr4-94);stroke:#ffc000;stroke-linecap:round;stroke-linejoin:round;stroke-width:1.5}
		.st17 {fill:#ffc000;fill-opacity:1;stroke:#ffc000;stroke-opacity:1;stroke-width:0.37313432835821}
		.st18 {fill:none;stroke:#7030a0;stroke-dasharray:10.5,7.5;stroke-linecap:round;stroke-linejoin:round;stroke-width:1.5}
		.st19 {fill:#7030a0;font-family:Calibri;font-size:0.916672em;font-weight:bold}
		.st20 {fill:#c6d8f0;stroke:#000000;stroke-linecap:round;stroke-linejoin:round;stroke-width:1}
		.st21 {fill:#000000;font-family:Calibri;font-size:0.666664em;font-weight:bold}
		.st22 {fill:#dde2cd;stroke:#ff0000;stroke-dasharray:3.6,2.16;stroke-linecap:round;stroke-linejoin:round;stroke-width:0.24}
		.st23 {fill:#ff0000;font-family:Calibri;font-size:0.666664em}
		.st24 {marker-end:url(#mrkr13-167);marker-start:url(#mrkr13-165);stroke:#00b050;stroke-linecap:round;stroke-linejoin:round;stroke-width:1.5}
		.st25 {fill:#000000;font-family:Calibri;font-size:1.16666em;font-weight:bold}
		.st26 {fill:#000000;font-size:0.727266em}
		.st27 {stroke:#000000;stroke-linecap:round;stroke-linejoin:round;stroke-width:0.75}
		.st28 {fill:#ff0000;font-family:Calibri;font-size:0.833336em}
		.st29 {fill:none;fill-rule:evenodd;font-size:12px;overflow:visible;stroke-linecap:square;stroke-miterlimit:3}
	]]>
	</style>

	<defs id="Markers">
		<g id="lend4">
			<path d="M 2 1 L 0 0 L 2 -1 L 2 1 " style="stroke:none"/>
		</g>
		<marker id="mrkr4-76" class="st13" refX="-5.36" orient="auto" markerUnits="strokeWidth" overflow="visible">
			<use xlink:href="#lend4" transform="scale(-2.68,-2.68) "/>
		</marker>
		<marker id="mrkr4-94" class="st17" refX="-5.36" orient="auto" markerUnits="strokeWidth" overflow="visible">
			<use xlink:href="#lend4" transform="scale(-2.68,-2.68) "/>
		</marker>
		<g id="lend13">
			<path d="M 3 1 L 0 0 L 3 -1 L 3 1 " style="stroke:none"/>
		</g>
		<marker id="mrkr13-165" class="st13" refX="7.8" orient="auto" markerUnits="strokeWidth" overflow="visible">
			<use xlink:href="#lend13" transform="scale(2.68) "/>
		</marker>
		<marker id="mrkr13-167" class="st13" refX="-8.04" orient="auto" markerUnits="strokeWidth" overflow="visible">
			<use xlink:href="#lend13" transform="scale(-2.68,-2.68) "/>
		</marker>
	</defs>
	<g>
		<title>PRE-PROD / PROD</title>
		<g id="shape264-1" transform="translate(21.9183,-182.343)">
			<title>Box.264</title>
			<path d="M0 595.21 L123.31 595.21 L123.31 330.96 L0 330.96 L0 595.21 Z" class="st1"/>
		</g>
		<g id="shape263-3" transform="translate(450.942,-162.5)">
			<title>Box.263</title>
			<path d="M0 595.21 L173.76 595.21 L173.76 181 L0 181 L0 595.21 Z" class="st1"/>
		</g>
		<g id="shape261-5" transform="translate(262.438,-108.075)">
			<title>Box.261</title>
			<path d="M0 595.21 L166.96 595.21 L166.96 126.57 L0 126.57 L0 595.21 Z" class="st1"/>
		</g>
		<g id="shape1-7" transform="translate(282.777,-423.287)">
			<title>Box.3</title>
			<desc>Talend Admin Server 1</desc>
			<rect x="0" y="542.767" width="126.709" height="52.4409" class="st2"/>
			<text x="11.67" y="556.67" class="st3">Talend Admin Server 1</text>		</g>
		<g id="shape9-10" transform="translate(463.06,-200.059)">
			<title>Box.9</title>
			<desc>Job Server 2</desc>
			<rect x="0" y="524.342" width="144.685" height="70.8661" class="st2"/>
			<text x="44.69" y="538.24" class="st3">Job Server 2</text>		</g>
		<g id="shape10-13" transform="translate(479.005,-211.398)">
			<title>Box.10</title>
			<desc>JobServer</desc>
			<rect x="0" y="558.357" width="113.386" height="36.8504" class="st4"/>
			<text x="40.79" y="569.56" class="st5">JobServer</text>		</g>
		<g id="shape19-16" transform="translate(34.6742,-274.683)">
			<title>Box.46</title>
			<desc>Client PC</desc>
			<rect x="0" y="475.019" width="96.378" height="120.189" class="st2"/>
			<text x="27.87" y="488.92" class="st3">Client PC</text>		</g>
		<g id="shape20-19" transform="translate(48.8474,-352.353)">
			<title>Box.47</title>
			<desc>Web Browser</desc>
			<rect x="0" y="578.2" width="68.0315" height="17.0079" class="st4"/>
			<text x="11.97" y="589.4" class="st5">Web Browser</text>		</g>
		<g id="shape21-22" transform="translate(48.8474,-324.006)">
			<title>Box.48</title>
			<desc>DB Clients</desc>
			<rect x="0" y="578.2" width="68.0315" height="17.0079" class="st4"/>
			<text x="17.51" y="589.4" class="st5">DB Clients</text>		</g>
		<g id="shape22-25" transform="translate(48.8474,-287.156)">
			<title>Box.49</title>
			<desc>File Tools (FTP etc.)</desc>
			<rect x="0" y="566.861" width="68.0315" height="28.3465" class="st4"/>
			<text x="10.83" y="578.06" class="st5">File Tools (FTP <tspan x="26.77" dy="1.2em" class="st6">etc.)</tspan></text>		</g>
		<g id="shape97-29" transform="translate(506.832,-214.232)">
			<title>Data table.97</title>
			<desc>Jobs</desc>
			<path d="M0 592.37 L60.09 592.37 L60.09 578.2 L0 578.2 L0 592.37 Z" class="st7"/>
			<text x="23" y="588.83" class="st5">Jobs</text>		</g>
		<g id="shape144-32" transform="translate(466.013,-422.331)">
			<title>Box.144</title>
			<desc>Job Server 1</desc>
			<rect x="0" y="495.039" width="141.732" height="100.169" class="st2"/>
			<text x="43.21" y="508.94" class="st3">Job Server 1</text>		</g>
		<g id="shape145-35" transform="translate(480.658,-461.555)">
			<title>Box.145</title>
			<desc>JobServer</desc>
			<rect x="0" y="558.357" width="113.386" height="36.8504" class="st4"/>
			<text x="40.79" y="569.56" class="st5">JobServer</text>		</g>
		<g id="shape146-38" transform="translate(507.304,-464.85)">
			<title>Data table.146</title>
			<desc>Jobs</desc>
			<path d="M0 592.37 L60.09 592.37 L60.09 578.2 L0 578.2 L0 592.37 Z" class="st7"/>
			<text x="23" y="588.83" class="st5">Jobs</text>		</g>
		<g id="shape150-41" transform="translate(285.257,-551.413)">
			<title>Sheet.150</title>
			<desc>Administration</desc>
			<rect x="0" y="570.263" width="131.811" height="24.9449" class="st8"/>
			<text x="9.7" y="588.14" class="st9">Administration</text>		</g>
		<g id="shape154-44" transform="translate(497.147,-551.413)">
			<title>Sheet.154</title>
			<desc>Execution</desc>
			<rect x="0" y="570.263" width="91.1811" height="24.9449" class="st8"/>
			<text x="8.94" y="588.14" class="st9">Execution </text>		</g>
		<g id="shape156-47" transform="translate(18.375,-412.447)">
			<title>Sheet.156</title>
			<desc>Client</desc>
			<rect x="0" y="570.263" width="131.811" height="24.9449" class="st8"/>
			<text x="44.24" y="588.14" class="st9">Client</text>		</g>
		<g id="shape172-50" transform="translate(284.548,-202.646)">
			<title>Box.172</title>
			<desc>Talend Admin Server 2</desc>
			<rect x="0" y="537.558" width="126.709" height="57.6496" class="st2"/>
			<text x="11.67" y="551.46" class="st3">Talend Admin Server 2</text>		</g>
		<g id="shape184-53" transform="translate(148.005,-369.858)">
			<title>Sheet.184</title>
			<rect x="0" y="575.208" width="152" height="20" class="st8"/>
		</g>
		<g id="shape238-55" transform="translate(189.753,-210.689)">
			<title>Box.84</title>
			<desc>F A I L O V E R D E V I C E</desc>
			<path d="M0 595.21 L31.18 595.21 L31.18 347.46 L0 347.46 L0 595.21 Z" class="st10"/>
			<text x="13.3" y="384.46" class="st11">F <tspan x="12.56" dy="1.2em" class="st6">A </tspan><tspan x="14.26" dy="1.2em"
						class="st6">I </tspan><tspan x="13.48" dy="1.2em" class="st6">L </tspan><tspan x="12.21" dy="1.2em"
						class="st6">O </tspan><tspan x="12.63" dy="1.2em" class="st6">V </tspan><tspan x="13.15" dy="1.2em"
						class="st6">E </tspan><tspan x="12.78" dy="1.2em" class="st6">R  </tspan><tspan x="12.44" dy="2.4em"
						class="st6">D </tspan><tspan x="13.15" dy="1.2em" class="st6">E </tspan><tspan x="12.63" dy="1.2em"
						class="st6">V </tspan><tspan x="14.26" dy="1.2em" class="st6">I </tspan><tspan x="12.94" dy="1.2em"
						class="st6">C </tspan><tspan x="13.15" dy="1.2em" class="st6">E</tspan></text>		</g>
		<g id="shape249-71" transform="translate(220.934,-334.563)">
			<title>Dynamic connector.249</title>
			<desc>All requests</desc>
			<path d="M0 595.21 L24.21 595.21 L24.21 480.26 L53.8 480.26" class="st12"/>
			<rect x="10.1658" y="521.427" width="28.0934" height="19.1997" class="st14"/>
			<text x="20.06" y="528.63" class="st15">All  <tspan x="10.17" dy="1.2em" class="st6">requests</tspan></text>		</g>
		<g id="shape250-80" transform="translate(220.934,-334.563)">
			<title>Dynamic connector.250</title>
			<desc>Requests On Failover</desc>
			<path d="M0 595.21 L24.21 595.21 L24.21 698.3 L55.57 698.3" class="st12"/>
			<rect x="9.38853" y="639.949" width="29.648" height="28.7996" class="st14"/>
			<text x="9.39" y="647.15" class="st15">Requests <tspan x="19.46" dy="1.2em" class="st6">On </tspan><tspan x="11.32"
						dy="1.2em" class="st6">Failover</tspan></text>		</g>
		<g id="shape251-89" transform="translate(346.131,-423.287)">
			<title>Dynamic connector.251</title>
			<path d="M0 595.21 L0 618.24 L97.44 618.24 L97.44 633.7" class="st16"/>
		</g>
		<g id="shape252-95" transform="translate(539.666,-465.217)">
			<title>Dynamic connector.252</title>
			<path d="M0 595.21 L0 660.76 L-96.09 660.76 L-96.09 675.63" class="st16"/>
		</g>
		<g id="shape253-100" transform="translate(535.403,-270.925)">
			<title>Dynamic connector.253</title>
			<path d="M0 595.21 L0 580.44 L-91.83 580.44 L-91.83 558.37" class="st16"/>
		</g>
		<g id="shape254-105" transform="translate(347.903,-260.295)">
			<title>Dynamic connector.254</title>
			<path d="M0 595.21 L0 570.4 L95.67 570.4 L95.67 547.74" class="st16"/>
		</g>
		<g id="shape255-110" transform="translate(131.052,-341.757)">
			<title>Dynamic connector.255</title>
			<path d="M0 602.19 L13.5 602.19 L13.5 602.4 L50.66 602.4" class="st12"/>
		</g>
		<g id="shape321-115" transform="translate(270.375,-193.114)">
			<title>Box.321</title>
			<desc>Quartz cluster (Active – Active)</desc>
			<path d="M0 595.21 L151.65 595.21 L151.65 287.08 L0 287.08 L0 595.21 Z" class="st18"/>
			<text x="5.24" y="300.98" class="st19">Quartz cluster (Active – Active)</text>		</g>
		<g id="shape322-118" transform="translate(456.682,-178.091)">
			<title>Box.322</title>
			<desc>Virtual Jobserver</desc>
			<path d="M0 595.21 L160.37 595.21 L160.37 229.54 L0 229.54 L0 595.21 Z" class="st18"/>
			<text x="41.49" y="243.44" class="st19">Virtual Jobserver </text>		</g>
		<g id="shape168-121" transform="translate(276.741,-315.807)">
			<title>Box.168</title>
			<desc>Shared File System</desc>
			<rect x="0" y="534.263" width="333.661" height="60.9449" class="st20"/>
			<text x="135.58" y="545.46" class="st21">Shared File System</text>		</g>
		<g id="shape169-124" transform="translate(294.753,-343.256)">
			<title>Box.169</title>
			<desc>Deployed Job Binaries</desc>
			<rect x="0" y="578.342" width="113.386" height="16.8661" class="st4"/>
			<text x="20.94" y="589.54" class="st5">Deployed Job Binaries</text>		</g>
		<g id="shape170-127" transform="translate(294.753,-319.941)">
			<title>Box.170</title>
			<desc>Job Logs</desc>
			<rect x="0" y="578.342" width="113.386" height="16.8661" class="st4"/>
			<text x="43.06" y="589.54" class="st5">Job Logs</text>		</g>
		<g id="shape171-130" transform="translate(479.005,-342.547)">
			<title>Box.171</title>
			<desc>Common job files</desc>
			<rect x="0" y="578.342" width="113.386" height="16.8661" class="st4"/>
			<text x="28.26" y="589.54" class="st5">Common job files</text>		</g>
		<g id="shape323-133" transform="translate(480.068,-437.461)">
			<title>Box.323</title>
			<desc>SAP RFC Server (optional)</desc>
			<path d="M0 595.21 L113.39 595.21 L113.39 576.78 L0 576.78 L0 595.21 Z" class="st22"/>
			<text x="15.27" y="587.98" class="st5">SAP RFC Server (optional)</text>		</g>
		<g id="shape342-136" transform="translate(662.832,-172.528)">
			<title>Box.260</title>
			<path d="M0 595.21 L163.42 595.21 L163.42 430.1 L0 430.1 L0 595.21 Z" class="st1"/>
		</g>
		<g id="shape343-138" transform="translate(677.005,-186.701)">
			<title>Box.109</title>
			<desc>DB</desc>
			<rect x="0" y="482.779" width="135.213" height="112.429" class="st2"/>
			<text x="61.06" y="496.68" class="st3">DB</text>		</g>
		<g id="shape344-141" transform="translate(696.422,-313.303)">
			<title>Sheet.344</title>
			<desc>Database</desc>
			<rect x="0" y="570.263" width="109.134" height="24.9449" class="st8"/>
			<text x="19.49" y="588.14" class="st9">Database</text>		</g>
		<g id="shape345-144" transform="translate(687.918,-200.874)">
			<title>Box.157</title>
			<desc>Talend Infratructure Database</desc>
			<rect x="0" y="518.567" width="113.386" height="76.6404" class="st4"/>
			<text x="7.71" y="529.77" class="st5">Talend Infratructure Database</text>		</g>
		<g id="shape346-147" transform="translate(699.106,-240.598)">
			<title>Data table.159</title>
			<desc>TAC</desc>
			<path d="M0 590.83 L91.01 590.83 L91.01 576.66 L0 576.66 L0 590.83 Z" class="st7"/>
			<text x="39.11" y="587.28" class="st5">TAC</text>		</g>
		<g id="shape347-150" transform="translate(699.106,-226.363)">
			<title>Data table.160</title>
			<desc>AMC</desc>
			<path d="M0 590.83 L91.01 590.83 L91.01 576.66 L0 576.66 L0 590.83 Z" class="st7"/>
			<text x="37.64" y="587.28" class="st5">AMC</text>		</g>
		<g id="shape348-153" transform="translate(699.106,-212.106)">
			<title>Data table.341</title>
			<desc>DQ Data Mart</desc>
			<path d="M0 590.83 L91.01 590.83 L91.01 576.66 L0 576.66 L0 590.83 Z" class="st7"/>
			<text x="22.84" y="587.28" class="st23">DQ Data Mart</text>		</g>
		<g id="shape349-156" transform="translate(35.3829,-224.272)">
			<title>Box.349</title>
			<desc>External scheduler</desc>
			<path d="M0 595.21 L96.38 595.21 L96.38 557.33 L0 557.33 L0 595.21 Z" class="st10"/>
			<text x="5.89" y="571.23" class="st3">External scheduler</text>		</g>
		<g id="shape351-159" transform="translate(131.761,-236.163)">
			<title>Dynamic connector</title>
			<path d="M11.7 588.16 L12.06 588.16 L13.5 588.16 L13.5 588.08 L45.93 588.08" class="st24"/>
		</g>
		<g id="shape352-168" transform="translate(664.674,-363.051)">
			<title>Box.330</title>
			<path d="M0 595.21 L161.57 595.21 L161.57 382.61 L0 382.61 L0 595.21 Z" class="st1"/>
		</g>
		<g id="shape353-170" transform="translate(674.595,-550.355)">
			<title>Sheet.353</title>
			<desc>SDLC</desc>
			<rect x="0" y="570.263" width="131.811" height="24.9449" class="st8"/>
			<text x="51.52" y="586.94" class="st25">SDLC</text>		</g>
		<g id="shape354-173" transform="translate(674.393,-463.641)">
			<title>Box.332</title>
			<desc>Shared Nexus (Same server and repositories as in TEST, Pre-Pr...</desc>
			<rect x="0" y="516.154" width="142.583" height="79.0535" class="st2"/>
			<text x="40.04" y="530.05" class="st3">Shared Nexus <tspan x="12.3" dy="1.312em" class="st26"> </tspan><tspan
						class="st26">(Same server and repositories as in </tspan><tspan x="29.75" dy="1.2em" class="st26">TEST, Pre</tspan><tspan
						class="st26">-</tspan><tspan class="st26">Prod and Prod)</tspan></text>		</g>
		<g id="shape355-181" transform="translate(687.999,-475.405)">
			<title>Box.56</title>
			<desc>Nexus (Collapsed)</desc>
			<rect x="0" y="573.381" width="113.386" height="21.8268" class="st4"/>
			<text x="27.64" y="584.58" class="st5">Nexus (Collapsed)</text>		</g>
		<g id="shape356-184" transform="translate(675.304,-373.681)">
			<title>Box.158</title>
			<desc>CI Server (Same server as in TEST, Pre-Prod and Prod)</desc>
			<rect x="0" y="517.255" width="140.315" height="77.9528" class="st2"/>
			<text x="49.89" y="531.16" class="st3">CI Server  <tspan x="7.56" dy="1.312em" class="st26">(Same server as in TEST, Pre</tspan><tspan
						class="st26">-</tspan><tspan class="st26">Prod and </tspan><tspan x="61.06" dy="1.2em" class="st26">Prod)</tspan></text>		</g>
		<g id="shape357-191" transform="translate(688.296,-387.287)">
			<title>Box.181</title>
			<desc>CI (Collapsed)</desc>
			<rect x="0" y="573.381" width="113.386" height="21.8268" class="st4"/>
			<text x="34.47" y="584.58" class="st5">CI (Collapsed)</text>		</g>
		<g id="shape358-194" transform="translate(289.438,-431.791)">
			<title>Box</title>
			<desc>TAC (Collapsed)</desc>
			<rect x="0" y="575.365" width="113.386" height="19.8425" class="st4"/>
			<text x="31.21" y="586.57" class="st5">TAC (Collapsed)</text>		</g>
		<g id="shape360-197" transform="translate(291.8,-214.941)">
			<title>Box.360</title>
			<desc>TAC (Collapsed)</desc>
			<rect x="0" y="575.365" width="113.386" height="19.8425" class="st4"/>
			<text x="31.21" y="586.57" class="st5">TAC (Collapsed)</text>		</g>
		<g id="shape367-200" transform="translate(273.493,-120.235)">
			<title>Box.58</title>
			<desc>Log Server</desc>
			<path d="M0 595.21 L141.73 595.21 L141.73 533.1 L0 533.1 L0 595.21 Z" class="st10"/>
			<text x="47.08" y="547" class="st3">Log Server</text>		</g>
		<g id="shape368-203" transform="translate(287.666,-132.982)">
			<title>Box.64</title>
			<desc>Logserver (ELK stack collapsed)</desc>
			<rect x="0" y="568.279" width="113.386" height="26.9291" class="st4"/>
			<text x="40.88" y="579.48" class="st5">Logserver <tspan x="23.11" dy="1.2em" class="st6">(ELK stack collapsed)</tspan></text>		</g>
		<g id="shape369-207" transform="translate(450.658,-18.5)">
			<title>Box.65</title>
			<path d="M0 595.21 L173.76 595.21 L173.76 459.93 L0 459.93 L0 595.21 Z" class="st1"/>
		</g>
		<g id="shape370-209" transform="translate(482.855,-123.382)">
			<title>Sheet.370</title>
			<desc>Self Service</desc>
			<rect x="0" y="570.263" width="105.685" height="24.9449" class="st8"/>
			<text x="10.22" y="588.14" class="st9">Self Service</text>		</g>
		<g id="shape371-212" transform="translate(472.343,-34.9409)">
			<title>Box.59</title>
			<desc>Data Preparation / Stewardship Server</desc>
			<rect x="0" y="510.169" width="126.709" height="85.0394" class="st2"/>
			<text x="20.55" y="524.07" class="st3">Data Preparation / <tspan x="19.02" dy="1.2em" class="st6">Stewardship Server</tspan></text>		</g>
		<g id="shape372-216" transform="translate(479.005,-47.3425)">
			<title>Box.62</title>
			<desc>Data Preparation and Data Stewardship components (collapsed v...</desc>
			<rect x="0" y="554.814" width="113.386" height="40.3937" class="st4"/>
			<text x="13.35" y="566.01" class="st5">Data Preparation and Data <tspan x="15.36" dy="1.2em" class="st6">Stewardship components </tspan><tspan
						x="30.48" dy="1.2em" class="st6">(collapsed view)</tspan></text>		</g>
		<g id="shape248-221" transform="translate(135.895,-375.665)">
			<title>Text Callout</title>
			<desc>Optional</desc>
			<path d="M46.77 595.21 L53.86 618.56" class="st27"/>
			<text x="5.82" y="586.87" class="st28">Optional</text>		</g>
	</g>
</svg>
