<?xml version="1.0" encoding="UTF-8" standalone="no"?>
<!DOCTYPE svg PUBLIC "-//W3C//DTD SVG 1.1//EN" "http://www.w3.org/Graphics/SVG/1.1/DTD/svg11.dtd">
<!-- Generated by Microsoft Visio, SVG Export esb-physical-architecture-preprod-prod-6.4.svg Physical Talend Architecture -->
<svg xmlns="http://www.w3.org/2000/svg" xmlns:xlink="http://www.w3.org/1999/xlink" xmlns:ev="http://www.w3.org/2001/xml-events"
		width="11.8488in" height="8.39535in" viewBox="0 0 853.114 604.466" xml:space="preserve" color-interpolation-filters="sRGB"
		class="st32">
	<style type="text/css">
	<![CDATA[
		.st1 {fill:#f2f2f2;stroke:#d8d8d8;stroke-dasharray:7,5;stroke-linecap:round;stroke-linejoin:round;stroke-width:1}
		.st2 {fill:#ffffff;stroke:#7f7f7f;stroke-linecap:round;stroke-linejoin:round;stroke-width:1}
		.st3 {fill:#7f7f7f;font-family:Calibri;font-size:0.916672em;font-weight:bold}
		.st4 {fill:none;stroke:none;stroke-linecap:round;stroke-linejoin:round;stroke-width:0.75}
		.st5 {fill:#000000;font-family:Calibri;font-size:1.16666em;font-weight:bold}
		.st6 {fill:#ffffff;stroke:#000000;stroke-linecap:round;stroke-linejoin:round;stroke-width:1}
		.st7 {fill:#0070c0;font-family:Calibri;font-size:0.916672em;font-weight:bold}
		.st8 {font-size:1em}
		.st9 {fill:#dde2cd;stroke:#000000;stroke-linecap:round;stroke-linejoin:round;stroke-width:0.24}
		.st10 {fill:#000000;font-family:Calibri;font-size:0.666664em}
		.st11 {fill:#e5b9b5;stroke:#000000;stroke-linecap:round;stroke-linejoin:round;stroke-width:1}
		.st12 {fill:#000000;font-family:Calibri;font-size:0.916672em;font-weight:bold}
		.st13 {fill:none;stroke:#7030a0;stroke-dasharray:10.5,7.5;stroke-linecap:round;stroke-linejoin:round;stroke-width:1.5}
		.st14 {fill:#7030a0;font-family:Calibri;font-size:0.916672em;font-weight:bold}
		.st15 {marker-end:url(#mrkr13-66);marker-start:url(#mrkr13-64);stroke:#00b050;stroke-linecap:round;stroke-linejoin:round;stroke-width:1.5}
		.st16 {fill:#00b050;fill-opacity:1;stroke:#00b050;stroke-opacity:1;stroke-width:0.37313432835821}
		.st17 {marker-end:url(#mrkr13-75);marker-start:url(#mrkr13-73);stroke:#ffc000;stroke-linecap:round;stroke-linejoin:round;stroke-width:1.5}
		.st18 {fill:#ffc000;fill-opacity:1;stroke:#ffc000;stroke-opacity:1;stroke-width:0.37313432835821}
		.st19 {marker-end:url(#mrkr4-81);stroke:#ffc000;stroke-linecap:round;stroke-linejoin:round;stroke-width:1.5}
		.st20 {marker-end:url(#mrkr4-87);stroke:#00b050;stroke-linecap:round;stroke-linejoin:round;stroke-width:1.5}
		.st21 {fill:none;stroke:#7f7f7f;stroke-linecap:round;stroke-linejoin:round;stroke-width:0.75}
		.st22 {fill:#7f7f7f;font-family:Calibri;font-size:0.75em;font-weight:bold}
		.st23 {fill:#000000;font-family:Calibri;font-size:1.5em;font-weight:bold}
		.st24 {fill:#ffffff;stroke:#000000;stroke-linecap:round;stroke-linejoin:round;stroke-width:0.24}
		.st25 {fill:#c6d8f0;stroke:#000000;stroke-linecap:round;stroke-linejoin:round;stroke-width:1}
		.st26 {fill:#000000;font-family:Calibri;font-size:0.666664em;font-weight:bold}
		.st27 {fill:#ffffff}
		.st28 {stroke:#000000;stroke-linecap:round;stroke-linejoin:round;stroke-width:0.24}
		.st29 {fill:#000000;font-size:0.727266em}
		.st30 {fill:#ffffff;stroke:#ff0000;stroke-dasharray:7,5;stroke-linecap:round;stroke-linejoin:round;stroke-width:1}
		.st31 {fill:#dde2cd;stroke:#000000;stroke-linecap:round;stroke-linejoin:round;stroke-width:1}
		.st32 {fill:none;fill-rule:evenodd;font-size:12px;overflow:visible;stroke-linecap:square;stroke-miterlimit:3}
	]]>
	</style>

	<defs id="Markers">
		<g id="lend13">
			<path d="M 3 1 L 0 0 L 3 -1 L 3 1 " style="stroke:none"/>
		</g>
		<marker id="mrkr13-64" class="st16" refX="7.8" orient="auto" markerUnits="strokeWidth" overflow="visible">
			<use xlink:href="#lend13" transform="scale(2.68) "/>
		</marker>
		<marker id="mrkr13-66" class="st16" refX="-8.04" orient="auto" markerUnits="strokeWidth" overflow="visible">
			<use xlink:href="#lend13" transform="scale(-2.68,-2.68) "/>
		</marker>
		<marker id="mrkr13-73" class="st18" refX="7.8" orient="auto" markerUnits="strokeWidth" overflow="visible">
			<use xlink:href="#lend13" transform="scale(2.68) "/>
		</marker>
		<marker id="mrkr13-75" class="st18" refX="-8.04" orient="auto" markerUnits="strokeWidth" overflow="visible">
			<use xlink:href="#lend13" transform="scale(-2.68,-2.68) "/>
		</marker>
		<g id="lend4">
			<path d="M 2 1 L 0 0 L 2 -1 L 2 1 " style="stroke:none"/>
		</g>
		<marker id="mrkr4-81" class="st18" refX="-5.36" orient="auto" markerUnits="strokeWidth" overflow="visible">
			<use xlink:href="#lend4" transform="scale(-2.68,-2.68) "/>
		</marker>
		<marker id="mrkr4-87" class="st16" refX="-5.36" orient="auto" markerUnits="strokeWidth" overflow="visible">
			<use xlink:href="#lend4" transform="scale(-2.68,-2.68) "/>
		</marker>
	</defs>
	<g>
		<title>PRE-PROD / PROD</title>
		<g id="shape271-1" transform="translate(230.031,-21.4528)">
			<title>Box.271</title>
			<path d="M0 604.47 L570.33 604.47 L570.33 221.65 L0 221.65 L0 604.47 Z" class="st1"/>
		</g>
		<g id="shape228-3" transform="translate(23.9528,-18.5)">
			<title>Box.228</title>
			<desc>Legend</desc>
			<rect x="0" y="519.426" width="106.866" height="85.0394" class="st2"/>
			<text x="37.06" y="533.33" class="st3">Legend</text>		</g>
		<g id="shape221-6" transform="translate(24.3779,-146.059)">
			<title>Box.221</title>
			<path d="M0 604.47 L116.22 604.47 L116.22 414.54 L0 414.54 L0 604.47 Z" class="st1"/>
		</g>
		<g id="shape222-8" transform="translate(24.3779,-149.461)">
			<title>Sheet.222</title>
			<desc>Client</desc>
			<rect x="0" y="579.521" width="109.134" height="24.9449" class="st4"/>
			<text x="37.72" y="596.19" class="st5">Client</text>		</g>
		<g id="shape98-11" transform="translate(438.945,-258.854)">
			<title>Box.98</title>
			<desc>ESB Server Infrastructure 1</desc>
			<rect x="0" y="475.489" width="141.732" height="128.976" class="st6"/>
			<text x="46.61" y="489.39" class="st7">ESB Server  <tspan x="35.12" dy="1.2em" class="st8">Infrastructure </tspan>1</text>		</g>
		<g id="shape46-15" transform="translate(34.1811,-180.075)">
			<title>Box.46</title>
			<desc>Test / Operations client PC</desc>
			<rect x="0" y="474.072" width="96.378" height="130.394" class="st6"/>
			<text x="8.28" y="487.97" class="st7">Test / Operations <tspan x="28.48" dy="1.2em" class="st8">client PC</tspan></text>		</g>
		<g id="shape47-19" transform="translate(48.3543,-256.61)">
			<title>Box.47</title>
			<desc>Web Browser</desc>
			<rect x="0" y="587.458" width="68.0315" height="17.0079" class="st9"/>
			<text x="11.97" y="598.66" class="st10">Web Browser</text>		</g>
		<g id="shape48-22" transform="translate(48.3543,-228.264)">
			<title>Box.48</title>
			<desc>DB Clients</desc>
			<rect x="0" y="587.458" width="68.0315" height="17.0079" class="st9"/>
			<text x="17.51" y="598.66" class="st10">DB Clients</text>		</g>
		<g id="shape49-25" transform="translate(48.3543,-191.413)">
			<title>Box.49</title>
			<desc>File Tools (FTP etc.)</desc>
			<rect x="0" y="576.119" width="68.0315" height="28.3465" class="st9"/>
			<text x="10.83" y="587.32" class="st10">File Tools (FTP <tspan x="26.77" dy="1.2em" class="st8">etc.)</tspan></text>		</g>
		<g id="shape102-29" transform="translate(437.528,-28.5394)">
			<title>Box.102</title>
			<desc>ESB Server Infrastructure 2</desc>
			<rect x="0" y="480.45" width="141.732" height="124.016" class="st6"/>
			<text x="46.61" y="494.35" class="st7">ESB Server <tspan x="35.12" dy="1.2em" class="st8">Infrastructure</tspan> 2</text>		</g>
		<g id="shape184-33" transform="translate(-407.883,540.493) rotate(-90)">
			<title>Box.184</title>
			<desc>L O A D B A L A N C E R</desc>
			<rect x="0" y="570.45" width="323.15" height="34.0158" class="st11"/>
			<text x="585.13" y="-232.08" transform="rotate(90)" class="st12">L <tspan x="583.74" dy="1.2em" class="st8">O </tspan><tspan
						x="584.12" dy="1.2em" class="st8">A </tspan><tspan x="583.99" dy="1.2em" class="st8">D  </tspan><tspan
						x="583.13" dy="2.4em" class="st8"> </tspan>B <tspan x="584.12" dy="1.2em" class="st8">A </tspan><tspan
						x="585.13" dy="1.2em" class="st8">L </tspan><tspan x="584.12" dy="1.2em" class="st8">A </tspan><tspan
						x="583.83" dy="1.2em" class="st8">N </tspan><tspan x="584.55" dy="1.2em" class="st8">C </tspan><tspan
						x="584.77" dy="1.2em" class="st8">E </tspan><tspan x="584.36" dy="1.2em" class="st8">R</tspan></text>		</g>
		<g id="shape196-47" transform="translate(453.118,-265.941)">
			<title>Box.196</title>
			<desc>Active MQ</desc>
			<rect x="0" y="582.497" width="113.386" height="21.9685" class="st9"/>
			<text x="39.62" y="593.7" class="st10">Active MQ </text>		</g>
		<g id="shape197-50" transform="translate(453.118,-95.8622)">
			<title>Box.197</title>
			<desc>Active MQ</desc>
			<rect x="0" y="582.497" width="113.386" height="21.9685" class="st9"/>
			<text x="39.62" y="593.7" class="st10">Active MQ </text>		</g>
		<g id="shape198-53" transform="translate(431.858,-87.3583)">
			<title>Box.198</title>
			<desc>^ ESB JMS Cluster (Master / Slave)</desc>
			<path d="M0 604.47 L153.07 604.47 L153.07 397.54 L0 397.54 L0 604.47 Z" class="st13"/>
			<text x="73.8" y="411.44" class="st14">^    <tspan x="57.7" dy="4.8em" class="st8">ESB JMS </tspan><tspan x="22.59"
						dy="1.2em" class="st8">Cluster (Master / Slave)</tspan></text>		</g>
		<g id="shape206-58" transform="translate(196.583,-219.878)">
			<title>Dynamic connector.206</title>
			<path d="M11.7 604.47 L12.06 604.47 L28.35 604.47 L28.35 733.8 L43.69 733.8" class="st15"/>
		</g>
		<g id="shape217-67" transform="translate(437.528,-90.5472)">
			<title>Dynamic connector.217</title>
			<path d="M-11.7 604.47 L-12.06 604.47 L-19.84 604.47 L-19.84 540.34" class="st17"/>
		</g>
		<g id="shape225-76" transform="translate(58.0394,-82.7047)">
			<title>Dynamic connector.225</title>
			<path d="M0 611.13 L0 611.98 L34.48 611.98" class="st19"/>
		</g>
		<g id="shape227-82" transform="translate(56.2677,-51.1457)">
			<title>Dynamic connector.227</title>
			<path d="M0 611.13 L0 611.98 L34.48 611.98" class="st20"/>
		</g>
		<g id="shape229-88" transform="translate(23.9528,-51.0984)">
			<title>Sheet.229</title>
			<desc>Use of shared file system</desc>
			<rect x="0" y="570.45" width="106.016" height="34.0157" class="st21"/>
			<text x="6.28" y="596.46" class="st22">Use of shared file system</text>		</g>
		<g id="shape231-91" transform="translate(24.0216,-19.3268)">
			<title>Sheet.231</title>
			<desc>Comms via load balancer</desc>
			<rect x="0" y="572.694" width="106.797" height="31.7717" class="st21"/>
			<text x="6.69" y="597.58" class="st22">Comms via load balancer</text>		</g>
		<g id="shape232-94" transform="translate(35.0079,-457.87)">
			<title>Box.232</title>
			<path d="M0 604.47 L163.42 604.47 L163.42 482.35 L0 482.35 L0 604.47 Z" class="st1"/>
		</g>
		<g id="shape233-96" transform="translate(49.1811,-472.043)">
			<title>Box.233</title>
			<desc>DB</desc>
			<rect x="0" y="525.682" width="135.213" height="78.7837" class="st6"/>
			<text x="61.06" y="539.58" class="st7">DB</text>		</g>
		<g id="shape234-99" transform="translate(68.5984,-555.656)">
			<title>Sheet.234</title>
			<desc>Database</desc>
			<rect x="0" y="579.521" width="109.134" height="24.9449" class="st4"/>
			<text x="19.49" y="597.39" class="st23">Database</text>		</g>
		<g id="shape235-102" transform="translate(60.0945,-485.741)">
			<title>Box.157</title>
			<desc>Talend Infratructure Database</desc>
			<rect x="0" y="561.471" width="113.386" height="42.995" class="st9"/>
			<text x="7.71" y="572.67" class="st10">Talend Infratructure Database</text>		</g>
		<g id="shape236-105" transform="translate(71.2826,-486.217)">
			<title>Data table.159</title>
			<desc>TAC</desc>
			<path d="M0 600.09 L91.01 600.09 L91.01 585.91 L0 585.91 L0 600.09 Z" class="st24"/>
			<text x="39.11" y="596.54" class="st10">TAC</text>		</g>
		<g id="shape239-108" transform="translate(254.693,-166.728)">
			<title>Box.168</title>
			<desc>Shared File System</desc>
			<rect x="0" y="562.796" width="325.984" height="41.6693" class="st25"/>
			<text x="131.74" y="574" class="st26">Shared File System</text>		</g>
		<g id="shape241-111" transform="translate(254.693,-266.531)">
			<title>Box.241</title>
			<desc>ESB Server Business 1</desc>
			<rect x="0" y="491.08" width="141.732" height="113.386" class="st6"/>
			<text x="46.61" y="504.98" class="st7">ESB Server  <tspan x="47.15" dy="1.2em" class="st8">Business </tspan>1</text>		</g>
		<g id="shape240-115" transform="translate(268.866,-286.374)">
			<title>Box.41</title>
			<desc>Talend ESB Business</desc>
			<rect x="0" y="541.395" width="113.386" height="63.0709" class="st9"/>
			<text x="38.85" y="552.59" class="st10">Talend ESB <tspan x="42.71" dy="1.2em" class="st8">Business</tspan></text>		</g>
		<g id="shape245-119" transform="translate(278.564,-289.563)">
			<title>Data table.42</title>
			<desc>Services Routes</desc>
			<path d="M0 602.2 L85.04 602.2 L85.04 573.85 L0 573.85 L0 602.2 Z" class="st27"/>
			<path d="M0 602.2 L85.04 602.2 L85.04 573.85 L0 573.85 L0 602.2" class="st28"/>
			<path d="M0 588.02 L85.04 588.02" class="st28"/>
			<text x="29.33" y="584.48" class="st10">Services <tspan x="31.24" dy="1.772em" class="st8">Routes</tspan></text>		</g>
		<g id="shape246-125" transform="translate(453.118,-302.083)">
			<title>Box.52</title>
			<desc>Talend ESB Infrastructure</desc>
			<rect x="0" y="555.568" width="113.386" height="48.8976" class="st9"/>
			<text x="38.85" y="566.77" class="st10">Talend ESB <tspan x="34.13" dy="1.2em" class="st8">Infrastructure</tspan></text>		</g>
		<g id="shape247-129" transform="translate(467.291,-310.941)">
			<title>Data table.51</title>
			<desc>Infrastructure Services</desc>
			<path d="M0 604.47 L85.04 604.47 L85.04 590.29 L0 590.29 L0 604.47 Z" class="st24"/>
			<text x="5.86" y="600.92" class="st10">Infrastructure Services</text>		</g>
		<g id="shape248-132" transform="translate(453.118,-32.7913)">
			<title>Box.248</title>
			<desc>Talend ESB Infrastructure</desc>
			<rect x="0" y="555.568" width="113.386" height="48.8976" class="st9"/>
			<text x="38.85" y="566.77" class="st10">Talend ESB <tspan x="34.13" dy="1.2em" class="st8">Infrastructure</tspan></text>		</g>
		<g id="shape249-136" transform="translate(467.291,-43.0669)">
			<title>Data table.249</title>
			<desc>Infrastructure Services</desc>
			<path d="M0 604.47 L85.04 604.47 L85.04 590.29 L0 590.29 L0 604.47 Z" class="st24"/>
			<text x="5.86" y="600.92" class="st10">Infrastructure Services</text>		</g>
		<g id="shape250-139" transform="translate(252.331,-35.626)">
			<title>Box.250</title>
			<desc>ESB Server Business 2</desc>
			<rect x="0" y="494.623" width="141.732" height="109.843" class="st6"/>
			<text x="46.61" y="508.52" class="st7">ESB Server  <tspan x="47.15" dy="1.2em" class="st8">Business 2</tspan></text>		</g>
		<g id="shape251-143" transform="translate(267.331,-43.0669)">
			<title>Box.251</title>
			<desc>Talend ESB Business</desc>
			<rect x="0" y="541.395" width="113.386" height="63.0709" class="st9"/>
			<text x="38.85" y="552.59" class="st10">Talend ESB <tspan x="42.71" dy="1.2em" class="st8">Business</tspan></text>		</g>
		<g id="shape252-147" transform="translate(281.504,-46.2559)">
			<title>Data table.252</title>
			<desc>Services Routes</desc>
			<path d="M0 602.2 L85.04 602.2 L85.04 573.85 L0 573.85 L0 602.2 Z" class="st27"/>
			<path d="M0 602.2 L85.04 602.2 L85.04 573.85 L0 573.85 L0 602.2" class="st28"/>
			<path d="M0 588.02 L85.04 588.02" class="st28"/>
			<text x="29.33" y="584.48" class="st10">Services <tspan x="31.24" dy="1.772em" class="st8">Routes</tspan></text>		</g>
		<g id="shape259-153" transform="translate(196.583,-219.878)">
			<title>Dynamic connector.259</title>
			<path d="M11.7 604.47 L12.06 604.47 L28.35 604.47 L28.35 501.12 L46.05 501.12" class="st15"/>
		</g>
		<g id="shape261-160" transform="translate(268.866,-172.965)">
			<title>Box.169</title>
			<desc>Configuration Files</desc>
			<rect x="0" y="587.599" width="113.386" height="16.8661" class="st9"/>
			<text x="26.31" y="598.8" class="st10">Configuration Files</text>		</g>
		<g id="shape262-163" transform="translate(453.118,-172.965)">
			<title>Box.170</title>
			<desc>ActiveMQ Database</desc>
			<rect x="0" y="587.599" width="113.386" height="16.8661" class="st9"/>
			<text x="24.41" y="598.8" class="st10">ActiveMQ Database</text>		</g>
		<g id="shape263-166" transform="translate(394.063,-90.5472)">
			<title>Dynamic connector.263</title>
			<path d="M11.7 604.47 L12.06 604.47 L23.62 604.47 L23.62 540.34" class="st17"/>
		</g>
		<g id="shape264-173" transform="translate(417.685,-208.398)">
			<title>Dynamic connector.264</title>
			<path d="M0 592.77 L0 592.41 L0 489.64 L-9.2 489.64" class="st17"/>
		</g>
		<g id="shape265-180" transform="translate(438.945,-323.343)">
			<title>Dynamic connector.265</title>
			<path d="M-11.7 604.47 L-12.06 604.47 L-21.26 604.47 L-21.26 707.35" class="st17"/>
		</g>
		<g id="shape272-187" transform="translate(311.032,-425.697)">
			<title>Sheet.272</title>
			<desc>Execution</desc>
			<rect x="0" y="579.521" width="131.811" height="24.9449" class="st4"/>
			<text x="37.4" y="596.19" class="st5">Execution</text>		</g>
		<g id="shape273-190" transform="translate(672.803,-415.35)">
			<title>Box.330</title>
			<path d="M0 604.47 L161.81 604.47 L161.81 436.64 L0 436.64 L0 604.47 Z" class="st1"/>
		</g>
		<g id="shape274-192" transform="translate(686.976,-561.146)">
			<title>Sheet.274</title>
			<desc>SDLC</desc>
			<rect x="0" y="579.521" width="131.811" height="24.9449" class="st4"/>
			<text x="51.52" y="596.19" class="st5">SDLC</text>		</g>
		<g id="shape275-195" transform="translate(682.961,-491.886)">
			<title>Box.332</title>
			<desc>Shared Nexus (Same server and repositories as in TEST, Pre-Pr...</desc>
			<rect x="0" y="531.081" width="142.583" height="73.3842" class="st6"/>
			<text x="40.04" y="544.98" class="st7">Shared Nexus <tspan x="12.3" dy="1.312em" class="st29"> </tspan><tspan
						class="st29">(Same server and repositories as in </tspan><tspan x="29.75" dy="1.2em" class="st29">TEST, Pre</tspan><tspan
						class="st29">-</tspan><tspan class="st29">Prod and Prod)</tspan></text>		</g>
		<g id="shape276-203" transform="translate(681.071,-425.115)">
			<title>Box.335</title>
			<desc>CI Server (Same server as in TEST, Pre-Prod and Prod)</desc>
			<rect x="0" y="543.954" width="146.457" height="60.5114" class="st6"/>
			<text x="52.96" y="557.85" class="st7">CI Server  <tspan x="10.63" dy="1.312em" class="st29">(Same server as in TEST, Pre</tspan><tspan
						class="st29">-</tspan><tspan class="st29">Prod and </tspan><tspan x="64.13" dy="1.2em" class="st29">Prod)</tspan></text>		</g>
		<g id="shape277-210" transform="translate(695.858,-429.832)">
			<title>Box.181</title>
			<desc>CI (Collapsed)</desc>
			<rect x="0" y="587.199" width="113.386" height="17.2665" class="st9"/>
			<text x="34.47" y="598.4" class="st10">CI (Collapsed)</text>		</g>
		<g id="shape278-213" transform="translate(696.567,-497.98)">
			<title>Box.56</title>
			<desc>Nexus (Collapsed)</desc>
			<rect x="0" y="582.639" width="113.386" height="21.8268" class="st9"/>
			<text x="27.64" y="593.84" class="st10">Nexus (Collapsed)</text>		</g>
		<g id="shape279-216" transform="translate(205.087,-429.24)">
			<title>Box.279</title>
			<path d="M0 604.47 L456.94 604.47 L456.94 452.64 L0 452.64 L0 604.47 Z" class="st1"/>
		</g>
		<g id="shape280-218" transform="translate(389.22,-560.484)">
			<title>Sheet.280</title>
			<desc>Administration</desc>
			<rect x="0" y="579.521" width="131.811" height="24.9449" class="st4"/>
			<text x="22.19" y="596.19" class="st5">Administration</text>		</g>
		<g id="shape281-221" transform="translate(216.425,-500.106)">
			<title>Box.281</title>
			<desc>TAC Server (Master)</desc>
			<rect x="0" y="544.938" width="141.732" height="59.5276" class="st6"/>
			<text x="24.99" y="558.84" class="st7">TAC Server (Master)</text>		</g>
		<g id="shape282-224" transform="translate(230.598,-514.795)">
			<title>Box.282</title>
			<desc>TAC (Collapsed)</desc>
			<rect x="0" y="584.623" width="113.386" height="19.8425" class="st9"/>
			<text x="31.21" y="595.82" class="st10">TAC (Collapsed)</text>		</g>
		<g id="shape283-227" transform="translate(363.945,-488.879)">
			<title>Box.12</title>
			<desc>TAC Server (HA – for quartz cluster only)</desc>
			<rect x="0" y="533.774" width="141.732" height="70.6913" class="st6"/>
			<text x="8.46" y="547.67" class="st7">TAC Server (HA – for quartz <tspan x="42.62" dy="1.2em" class="st8">cluster only)</tspan></text>		</g>
		<g id="shape284-231" transform="translate(378.118,-501.635)">
			<title>Box.162</title>
			<desc>TAC (Collapsed)</desc>
			<rect x="0" y="584.623" width="113.386" height="19.8425" class="st9"/>
			<text x="31.21" y="595.82" class="st10">TAC (Collapsed)</text>		</g>
		<g id="shape285-234" transform="translate(216.425,-435.382)">
			<title>Box.58</title>
			<desc>Log Server</desc>
			<path d="M0 604.47 L141.73 604.47 L141.73 546.73 L0 546.73 L0 604.47 Z" class="st30"/>
			<text x="47.08" y="560.63" class="st7">Log Server</text>		</g>
		<g id="shape286-237" transform="translate(230.598,-443.758)">
			<title>Box.64</title>
			<desc>Logserver (ELK stack collapsed)</desc>
			<rect x="0" y="577.536" width="113.386" height="26.9291" class="st9"/>
			<text x="40.88" y="588.74" class="st10">Logserver <tspan x="23.11" dy="1.2em" class="st8">(ELK stack collapsed)</tspan></text>		</g>
		<g id="shape288-241" transform="translate(621.071,-376.232)">
			<title>Sheet.288</title>
			<desc>Excecution</desc>
			<rect x="0" y="579.521" width="131.811" height="24.9449" class="st4"/>
			<text x="34.47" y="596.19" class="st5">Excecution</text>		</g>
		<g id="shape267-244" transform="translate(511.931,-464.012)">
			<title>Box.267</title>
			<desc>IAM Server</desc>
			<rect x="0" y="508.088" width="143.746" height="96.378" class="st6"/>
			<text x="46.37" y="521.99" class="st7">IAM Server</text>		</g>
		<g id="shape268-247" transform="translate(526.104,-476.413)">
			<title>Box.268</title>
			<desc>Tomcat</desc>
			<rect x="0" y="548.836" width="113.386" height="55.6299" class="st9"/>
			<text x="44.49" y="560.04" class="st10">Tomcat</text>		</g>
		<g id="shape269-250" transform="translate(540.277,-495.476)">
			<title>Data table.269</title>
			<desc>Syncope</desc>
			<path d="M0 602.2 L85.04 602.2 L85.04 588.02 L0 588.02 L0 602.2 Z" class="st24"/>
			<text x="28.88" y="598.65" class="st10">Syncope</text>		</g>
		<g id="shape289-253" transform="translate(616.11,-124.209)">
			<title>Box.322</title>
			<desc>Virtual Jobserver</desc>
			<path d="M0 604.47 L160.37 604.47 L160.37 434.39 L0 434.39 L0 604.47 Z" class="st13"/>
			<text x="41.49" y="448.29" class="st14">Virtual Jobserver </text>		</g>
		<g id="shape290-256" transform="translate(625.819,-212.083)">
			<title>Box.17</title>
			<desc>Job Server 1</desc>
			<rect x="0" y="547.773" width="141.732" height="56.6929" class="st6"/>
			<text x="43.21" y="561.67" class="st7">Job Server 1</text>		</g>
		<g id="shape291-259" transform="translate(639.992,-229.091)">
			<title>Box.20</title>
			<desc>JobServer</desc>
			<rect x="0" y="587.458" width="113.386" height="17.0079" class="st31"/>
			<text x="40.79" y="598.66" class="st10">JobServer</text>		</g>
		<g id="shape292-262" transform="translate(624.402,-138.382)">
			<title>Box.18</title>
			<desc>Job Server 2</desc>
			<rect x="0" y="547.773" width="141.732" height="56.6929" class="st6"/>
			<text x="43.21" y="561.67" class="st7">Job Server 2</text>		</g>
		<g id="shape293-265" transform="translate(638.575,-155.39)">
			<title>Box.19</title>
			<desc>JobServer</desc>
			<rect x="0" y="587.458" width="113.386" height="17.0079" class="st31"/>
			<text x="40.79" y="598.66" class="st10">JobServer</text>		</g>
	</g>
</svg>
